<?xml version="1.0" standalone="no"?>
<!DOCTYPE svg PUBLIC "-//W3C//DTD SVG 20010904//EN"
 "http://www.w3.org/TR/2001/REC-SVG-20010904/DTD/svg10.dtd">
<svg version="1.0" xmlns="http://www.w3.org/2000/svg"
 width="1536.000000pt" height="1024.000000pt" viewBox="0 0 1536.000000 1024.000000"
 preserveAspectRatio="xMidYMid meet">

<g transform="translate(0.000000,1024.000000) scale(0.100000,-0.100000)"
fill="#000000" stroke="none">
<path d="M4192 6620 c-160 -43 -186 -63 -540 -414 -178 -177 -344 -348 -368
-382 -95 -132 -138 -265 -137 -419 1 -161 55 -299 169 -432 37 -43 51 -52 68
-48 15 5 17 4 7 -3 -11 -8 -4 -17 30 -42 58 -43 197 -110 226 -110 70 0 143
165 113 254 -9 29 -21 40 -65 60 -72 33 -145 102 -181 173 -27 53 -29 67 -29
163 0 159 -2 156 369 527 364 365 368 368 521 368 78 0 98 -4 152 -29 34 -15
70 -37 79 -47 20 -22 42 -26 24 -4 -6 8 -9 19 -5 24 3 7 0 8 -9 5 -9 -3 -16
-2 -16 3 0 5 11 10 25 11 22 2 24 -1 16 -17 -7 -12 -6 -22 1 -29 7 -7 8 -12 4
-12 -4 0 8 -21 27 -48 58 -78 72 -124 72 -232 0 -141 -8 -153 -272 -420 l-223
-226 20 -50 c29 -77 53 -221 48 -292 l-4 -64 302 304 c326 328 372 385 426
531 40 106 49 247 24 359 -54 242 -248 455 -481 529 -102 32 -292 37 -393 9z
m266 2 c40 -7 41 -8 21 -20 -11 -8 -18 -9 -14 -3 3 6 3 11 -2 11 -4 0 -38 3
-74 6 -37 4 -74 2 -83 -3 -9 -5 -33 -7 -54 -4 l-37 5 40 7 c54 8 151 9 203 1z
m-271 -24 c-21 -8 -27 -15 -24 -29 3 -11 1 -19 -5 -19 -6 0 -8 -11 -4 -24 8
-31 -3 -59 -20 -52 -7 3 -14 1 -16 -5 -2 -5 -8 -1 -15 9 -7 13 -8 23 -1 33 8
11 9 10 4 -3 -3 -10 -1 -18 4 -18 6 0 10 5 10 11 0 6 7 9 15 5 12 -4 13 -2 3
14 -7 10 -17 16 -23 13 -5 -4 1 6 14 20 20 22 22 27 8 27 -9 0 -17 -5 -17 -11
0 -5 -4 -7 -10 -4 -5 3 -10 0 -10 -8 0 -11 -7 -13 -22 -9 -17 4 -20 2 -15 -11
3 -9 2 -19 -3 -22 -6 -4 -10 -12 -10 -18 1 -7 10 -1 20 12 11 13 20 18 20 13
0 -6 -5 -14 -10 -17 -6 -4 -8 -11 -4 -16 3 -5 2 -9 -3 -8 -12 3 -47 -13 -55
-25 -5 -7 -8 -7 -8 2 0 7 7 15 15 18 13 5 13 9 3 22 -10 12 -10 14 0 8 6 -4
12 -5 12 -2 0 2 3 12 6 21 6 16 5 16 -25 1 -18 -10 -29 -21 -25 -28 4 -7 3 -8
-5 -4 -18 11 -4 24 62 58 72 36 126 57 147 57 8 -1 2 -5 -13 -11z m134 -2 c-8
-10 -9 -16 -1 -21 5 -3 10 -1 10 6 0 7 7 4 15 -7 14 -18 14 -18 15 4 0 13 4
20 10 17 6 -4 7 -11 4 -17 -5 -7 -2 -9 7 -6 10 4 15 -1 16 -14 1 -10 -5 -22
-13 -25 -8 -3 -14 -11 -14 -19 0 -8 -6 -11 -15 -8 -10 4 -15 0 -15 -11 0 -9 5
-13 10 -10 6 4 10 -5 10 -19 0 -14 4 -26 9 -26 6 0 8 9 6 19 -6 31 6 63 21 57
8 -3 14 0 14 7 0 8 3 8 9 -2 5 -8 18 -12 29 -9 13 4 23 0 26 -8 3 -8 11 -14
17 -14 7 0 5 8 -6 20 -17 19 -17 20 -1 20 9 0 14 5 11 10 -3 6 -1 10 4 10 6 0
11 -2 11 -4 0 -2 3 -12 7 -22 4 -12 3 -15 -5 -10 -7 4 -10 2 -7 -6 11 -31 13
-68 4 -68 -6 0 -6 -7 1 -19 7 -14 7 -22 -2 -27 -7 -5 -8 -3 -3 6 5 8 4 11 -3
7 -5 -4 -21 -3 -34 3 -22 10 -22 10 -1 7 12 -1 21 3 20 8 -1 6 -6 9 -11 7 -11
-4 -26 19 -20 30 3 4 11 8 17 8 7 0 6 -4 -3 -10 -8 -5 -13 -10 -10 -11 3 0 13
-2 22 -4 11 -2 16 3 15 16 -1 10 -5 19 -9 19 -15 0 -17 1 -44 15 -34 17 -60
10 -39 -12 20 -19 19 -30 -4 -38 -14 -4 -17 -12 -13 -27 l5 -22 10 22 c14 30
39 29 33 -1 -3 -19 1 -23 26 -25 16 -1 32 -3 36 -3 20 -3 44 2 39 8 -7 7 22
32 37 33 6 0 1 -7 -10 -15 -18 -14 -17 -14 9 -5 33 12 47 13 30 2 -8 -5 -9
-13 -3 -22 8 -13 11 -12 24 5 12 17 12 21 -3 33 -14 12 -14 12 4 4 11 -6 22
-11 25 -13 3 -1 15 3 27 10 19 10 22 9 17 -4 -3 -8 -10 -12 -15 -9 -5 3 -9 -3
-9 -13 0 -12 -3 -14 -8 -6 -6 9 -13 5 -27 -13 -19 -25 -64 -57 -51 -36 3 6 0
13 -6 15 -8 3 -5 6 6 6 15 1 16 3 6 16 -9 11 -16 13 -24 5 -5 -5 -18 -10 -28
-10 -12 0 -15 -5 -11 -16 5 -13 7 -13 14 -2 7 11 11 10 18 -2 5 -8 7 -18 5
-22 -3 -4 1 -8 8 -9 7 0 2 -5 -11 -10 -23 -9 -24 -10 -5 -25 18 -15 17 -15 -6
-1 -15 9 -26 25 -27 42 -1 15 -4 29 -6 31 -10 10 -54 10 -66 0 -11 -8 -13 -8
-7 2 4 6 3 12 -3 12 -5 0 -12 -6 -15 -12 -3 -9 -9 -7 -20 6 -12 15 -16 16 -17
5 0 -10 -2 -11 -6 -1 -4 10 -8 10 -19 1 -17 -14 -19 -33 -2 -23 7 4 8 3 4 -4
-4 -7 -1 -12 8 -12 9 0 16 6 16 13 0 8 3 8 9 -2 5 -8 19 -12 35 -9 15 3 26 1
26 -6 0 -7 3 -6 8 2 10 15 39 6 39 -12 0 -11 -8 -11 -36 -4 -20 6 -75 8 -123
6 -49 -2 -82 -1 -75 4 6 4 27 8 45 8 30 0 32 2 22 21 -6 11 -9 25 -6 32 2 7 5
3 5 -7 1 -18 2 -18 19 -3 10 10 19 24 19 32 0 17 -31 29 -49 19 -7 -4 -5 2 5
13 14 16 15 22 5 30 -10 7 -82 10 -107 4 -2 -1 2 -8 9 -16 11 -13 11 -18 0
-28 -10 -9 -11 -9 -6 0 4 7 1 21 -6 32 -9 15 -16 17 -30 10 -12 -6 -18 -6 -18
1 0 5 7 10 15 10 8 0 15 5 15 11 0 5 -5 7 -12 3 -7 -4 -8 -3 -4 4 4 7 1 12 -6
12 -22 0 -15 54 8 59 14 3 16 0 7 -10 -8 -11 -7 -22 7 -49 18 -33 19 -34 21
-10 1 18 3 20 6 7 4 -15 7 -16 21 -5 13 11 15 11 10 -3 -5 -13 0 -16 25 -14
17 1 33 7 35 14 2 6 11 11 20 11 14 0 15 2 2 10 -9 5 -19 5 -27 -2 -10 -8 -13
-7 -13 3 -1 9 -5 8 -15 -5 -8 -11 -15 -15 -15 -9 0 7 5 15 10 18 15 9 -8 35
-25 29 -17 -7 -29 12 -14 22 8 4 9 3 5 -4 -4 -7 -2 -12 3 -12 6 0 11 5 11 11
0 5 5 7 10 4 6 -3 10 -1 10 5 0 6 4 9 9 5 5 -3 12 -1 16 5 3 5 9 10 12 10 3 0
0 -6 -6 -14z m249 4 c10 -6 3 -8 -25 -4 l-40 5 24 -20 c19 -17 21 -24 11 -36
-7 -8 -8 -15 -3 -15 6 0 15 10 21 23 10 19 10 18 5 -10 -4 -23 -2 -33 7 -33 7
0 10 7 7 14 -4 11 -1 13 11 9 15 -6 15 -5 4 10 -8 9 -12 22 -9 29 4 9 6 7 6
-4 1 -12 9 -16 31 -16 25 1 28 3 18 16 -10 11 -5 11 27 -2 21 -9 41 -19 44
-22 8 -7 13 -36 12 -66 -1 -18 4 -28 13 -28 9 0 13 -7 9 -22 -3 -17 -2 -19 5
-9 6 9 12 10 16 2 4 -6 -4 -13 -19 -17 -14 -3 -25 -10 -25 -15 0 -5 -9 -9 -20
-9 -28 0 -25 18 5 26 14 3 25 13 25 23 0 14 -2 14 -11 1 -9 -13 -10 -12 -5 3
4 11 0 17 -12 18 -10 0 -12 3 -4 6 6 2 12 9 12 14 0 6 -4 8 -9 4 -5 -3 -13 0
-17 6 -4 7 -3 9 3 6 6 -4 14 0 17 9 4 12 2 15 -9 10 -20 -7 -19 3 3 21 16 14
16 14 0 9 -10 -3 -18 -1 -18 4 0 6 -5 10 -11 10 -5 0 -8 -4 -5 -8 2 -4 0 -14
-6 -22 -8 -13 -9 -12 -5 2 8 23 -28 30 -47 9 -20 -22 -20 -31 0 -31 8 0 13 4
10 9 -3 5 1 11 9 15 11 4 14 -1 13 -18 -2 -20 -7 -24 -34 -23 -18 1 -31 5 -28
9 3 4 -1 8 -9 8 -10 0 -14 -9 -13 -25 0 -15 6 -23 13 -21 6 3 16 -1 22 -8 8
-10 4 -11 -19 -8 -28 4 -53 22 -32 22 6 0 8 9 5 21 -4 15 -8 17 -14 8 -4 -7
-6 3 -4 22 1 19 -2 45 -7 59 -7 20 -11 22 -18 10 -5 -8 -10 -10 -10 -4 0 29
49 44 80 24z m-125 -9 c3 -6 -3 -9 -14 -8 -11 0 -17 5 -15 9 7 11 22 10 29 -1z
m30 -28 c-2 -10 -4 -21 -4 -24 -2 -14 -35 -19 -43 -7 -12 20 -9 27 11 21 11
-3 21 2 24 11 8 21 16 20 12 -1z m319 -94 c-3 -5 -11 -9 -17 -8 -8 0 -8 2 1 6
10 4 9 10 -5 27 l-18 21 22 -19 c13 -10 20 -23 17 -27z m-832 19 c-5 -7 -8
-25 -6 -41 2 -18 -1 -25 -8 -21 -7 4 -8 2 -4 -5 10 -15 27 -3 25 17 -3 32 1
42 17 42 13 0 14 -3 4 -15 -7 -8 -10 -24 -7 -35 3 -13 0 -20 -10 -20 -8 0 -11
-5 -7 -11 5 -8 1 -8 -14 0 -24 13 -26 59 -4 84 17 19 30 24 14 5z m146 -34 c9
-10 9 -16 -1 -26 -8 -7 -12 -19 -9 -26 2 -7 -2 -10 -10 -7 -18 7 -18 -49 0
-67 11 -11 16 -9 28 7 15 20 15 20 12 0 -2 -11 -8 -26 -12 -34 -6 -10 -5 -12
2 -7 7 4 12 2 12 -3 0 -13 -3 -13 -24 -5 -9 3 -14 9 -11 13 2 4 -2 8 -10 8
-20 0 -19 -23 1 -31 13 -5 14 -9 4 -21 -7 -8 -9 -22 -6 -31 6 -15 4 -15 -14
-3 -28 18 -27 33 2 39 19 5 20 7 6 13 -10 3 -20 2 -23 -3 -8 -12 -35 -13 -35
-1 0 5 8 8 17 7 13 -1 19 9 23 42 7 46 7 46 -20 32 -15 -8 -20 -6 -25 11 -4
11 -4 23 -1 26 3 4 1 12 -5 20 -9 10 -8 13 5 13 10 0 15 4 11 9 -3 5 -1 13 5
16 6 4 10 3 9 -2 -4 -22 2 -25 17 -7 14 18 15 18 4 -3 -9 -19 -8 -23 5 -23 9
0 13 5 10 10 -3 6 1 10 9 10 23 0 19 15 -6 28 -22 10 -22 10 -2 9 11 -1 26 -7
32 -13z m177 -2 c-3 -3 -11 0 -18 7 -9 10 -8 11 6 5 10 -3 15 -9 12 -12z m42
12 c-3 -3 -12 -4 -19 -1 -8 3 -5 6 6 6 11 1 17 -2 13 -5z m-413 -32 c-3 -9 5
-28 18 -41 17 -19 18 -23 5 -18 -12 5 -17 1 -17 -13 0 -11 -5 -20 -11 -20 -5
0 -8 3 -6 8 3 4 -1 21 -8 37 l-13 30 -1 -27 c-1 -16 4 -28 9 -28 6 0 9 -3 9
-7 -4 -22 2 -33 14 -28 6 4 3 -1 -8 -10 -19 -15 -19 -15 5 -11 14 2 24 8 23
14 -1 5 7 12 18 15 16 4 18 3 9 -8 -8 -9 -5 -14 11 -18 14 -4 19 -2 16 7 -3 7
1 13 8 13 7 0 11 -6 8 -13 -6 -15 13 -28 22 -14 9 14 27 12 23 -2 -3 -7 -14
-14 -26 -14 -35 -2 -38 -4 -23 -13 9 -6 5 -8 -14 -8 -17 0 -22 2 -15 7 17 10
3 30 -21 30 -22 0 -23 -3 -8 -33 9 -19 8 -20 -3 -6 -7 9 -23 21 -36 28 -21 11
-24 9 -34 -19 -7 -21 -13 -28 -18 -20 -6 9 -9 9 -15 0 -4 -6 1 -17 11 -25 17
-12 20 -10 30 13 6 15 9 30 7 34 -2 4 3 5 11 2 20 -8 20 -13 0 -35 -16 -18
-12 -39 8 -39 7 0 7 4 -1 13 -14 18 -6 25 23 20 27 -6 42 -41 21 -50 -8 -2
-27 1 -42 9 -15 8 -45 13 -65 13 -23 -1 -39 4 -42 12 -5 11 -1 11 15 2 17 -9
20 -8 13 3 -12 19 -14 39 -3 32 5 -3 9 2 9 11 0 9 -4 14 -9 11 -5 -3 -11 1
-15 9 -3 8 -1 15 5 15 12 0 8 21 -5 23 -5 1 -10 -7 -12 -18 -1 -11 -5 -36 -8
-56 -6 -40 20 -92 35 -68 4 7 11 11 14 7 3 -3 -1 -13 -9 -21 -9 -9 -13 -23
-10 -31 5 -12 2 -15 -10 -10 -18 7 -21 20 -6 29 13 8 2 27 -13 22 -16 -5 -36
17 -40 44 -2 13 -9 25 -15 27 -16 5 -15 -11 0 -26 9 -9 9 -12 1 -12 -7 0 -14
4 -18 10 -3 5 -13 6 -23 3 -9 -3 -5 4 10 15 26 22 64 30 53 12 -3 -5 1 -10 10
-10 9 0 13 4 10 10 -16 26 -13 53 10 76 14 14 25 20 25 14 0 -5 5 -10 11 -10
5 0 7 5 4 10 -4 6 -1 9 7 8 8 -2 12 5 11 17 -1 19 34 52 51 47 5 -2 6 4 3 12
-3 8 -1 17 6 20 7 2 13 5 14 5 0 1 -1 -7 -3 -17z m309 -9 c7 -11 12 -12 23 -2
8 6 17 9 21 5 3 -3 2 -6 -4 -6 -6 0 -9 -10 -8 -22 1 -13 0 -16 -2 -7 -3 12
-11 15 -25 11 -15 -3 -19 -2 -14 7 6 9 0 10 -21 6 -19 -5 -24 -4 -14 3 11 8
10 12 -5 21 -16 9 -14 10 11 5 17 -4 34 -13 38 -21z m-74 -2 c18 -12 5 -50
-18 -48 -10 0 -18 6 -18 13 0 7 8 11 18 9 12 -3 16 1 12 11 -3 7 -9 11 -14 8
-5 -3 -9 0 -9 5 0 13 10 14 29 2z m651 -2 c0 -8 4 -8 14 0 10 8 16 8 24 -2 8
-10 5 -12 -14 -12 -25 2 -60 25 -36 25 7 0 12 -5 12 -11z m-487 -17 c-21 -22
-50 -18 -32 4 6 8 20 14 30 14 18 0 18 -1 2 -18z m570 -19 c-4 -9 -2 -14 3
-10 6 3 11 -4 11 -16 2 -20 1 -20 -8 -4 -14 23 -28 22 -22 -3 3 -11 13 -20 23
-20 21 0 34 -26 18 -36 -6 -4 -8 -3 -4 4 3 6 1 14 -5 18 -6 3 -15 0 -20 -7
-11 -18 -12 -32 -1 -25 4 2 14 0 22 -5 12 -8 9 -9 -10 -7 -19 2 -24 8 -23 26
2 13 -1 21 -7 17 -5 -3 -7 0 -5 7 4 9 -2 14 -15 15 -11 1 -18 -2 -15 -8 4 -5
1 -9 -5 -9 -6 0 -10 8 -8 18 2 10 -2 16 -10 14 -8 -1 -11 2 -7 8 5 8 11 8 20
0 9 -8 15 -8 20 0 3 5 1 10 -4 10 -6 0 -11 8 -11 18 0 9 4 13 8 7 10 -14 48
-11 44 4 -1 7 2 10 7 6 6 -3 7 -13 4 -22z m-886 2 c0 -8 -4 -15 -9 -15 -10 0
-11 14 -1 23 9 10 10 9 10 -8z m230 -1 c-3 -3 -12 -4 -19 -1 -8 3 -5 6 6 6 11
1 17 -2 13 -5z m580 0 c-3 -3 -12 -4 -19 -1 -8 3 -5 6 6 6 11 1 17 -2 13 -5z
m-490 -26 c-3 -8 -6 -5 -6 6 -1 11 2 17 5 13 3 -3 4 -12 1 -19z m-79 -13 c-3
-3 -9 2 -12 12 -6 14 -5 15 5 6 7 -7 10 -15 7 -18z m452 10 c0 -9 -6 -12 -15
-9 -8 4 -12 10 -9 15 8 14 24 10 24 -6z m70 0 c0 -8 -7 -15 -15 -15 -8 0 -15
-4 -15 -9 0 -5 8 -8 18 -6 9 2 17 4 17 5 0 1 8 3 19 5 13 3 16 1 8 -7 -6 -6
-25 -11 -41 -12 -23 -1 -31 -6 -31 -19 0 -13 -6 -16 -25 -13 -14 3 -25 0 -25
-6 0 -6 -8 -4 -18 5 -10 10 -22 14 -27 10 -4 -5 -5 -3 -1 4 3 6 16 10 27 8 15
-3 19 0 15 10 -3 8 -3 15 0 15 2 0 9 -10 14 -22 6 -16 9 -18 9 -7 1 9 8 20 17
23 8 3 12 11 8 17 -4 7 -3 9 4 5 6 -3 17 0 24 8 17 19 18 19 18 1z m211 -67
c7 -13 6 -16 -4 -12 -12 4 -41 51 -55 89 -5 13 47 -55 59 -77z m-750 51 c4 -8
6 -16 3 -18 -3 -3 -9 1 -14 9 -13 22 -48 19 -54 -4 -3 -11 -8 -17 -11 -14 -4
3 -2 15 4 26 12 22 58 22 72 1z m425 -1 c4 -7 3 -8 -5 -4 -11 7 -36 -10 -39
-27 -1 -4 -6 -15 -11 -25 -9 -15 -10 -15 -11 4 0 21 33 64 50 64 5 0 12 -5 16
-12z m124 -53 c-10 -12 -10 -15 1 -15 8 0 20 -9 27 -21 8 -12 9 -18 4 -15 -6
3 -18 -1 -27 -10 -20 -20 -12 -32 10 -14 18 15 20 4 2 -13 -29 -28 -45 -4 -22
33 3 6 -1 10 -10 10 -10 0 -13 -5 -9 -12 6 -10 4 -10 -7 -2 -8 6 -26 11 -41
12 -22 1 -26 -2 -21 -16 4 -14 2 -13 -10 3 -18 22 -22 39 -8 31 5 -4 12 0 15
6 3 10 9 8 19 -5 9 -11 18 -14 21 -8 4 6 21 8 39 5 27 -4 29 -3 14 6 -14 9
-16 15 -6 26 6 8 14 14 16 14 3 0 0 -7 -7 -15z m-611 -21 c-7 -8 -22 -20 -33
-26 -19 -10 -20 -10 -7 5 11 14 11 17 0 17 -8 0 -3 6 11 14 30 15 46 10 29
-10z m667 12 c3 -8 4 -22 2 -31 -2 -13 -5 -12 -16 6 -8 11 -9 18 -3 14 6 -3
11 -2 11 4 0 5 -6 12 -12 14 -10 4 -10 6 0 6 7 1 15 -5 18 -13z m38 -23 c10
-11 36 -12 36 -2 0 5 8 9 18 9 13 0 14 -2 3 -9 -16 -10 -3 -20 22 -16 9 2 17
0 17 -5 0 -13 -33 -22 -39 -11 -10 16 -61 22 -61 6 0 -7 -7 -15 -15 -19 -25
-9 -17 -22 23 -33 l37 -11 -47 5 c-39 5 -47 3 -50 -12 -3 -18 -48 -30 -48 -13
0 4 5 8 11 8 5 0 7 5 4 10 -3 6 3 10 14 10 20 0 25 9 22 38 -1 6 8 12 19 12
17 0 20 4 15 20 -6 19 5 27 19 13z m119 -10 c-3 -7 -6 -13 -8 -13 -2 0 -5 6
-8 13 -3 8 1 14 8 14 7 0 11 -6 8 -14z m-941 -11 c9 -9 9 -12 -2 -12 -13 0
-13 -2 0 -10 11 -7 11 -10 2 -10 -7 0 -10 -4 -7 -10 3 -5 -1 -10 -9 -10 -8 0
-18 5 -22 12 -4 7 -3 8 4 4 8 -5 12 0 12 13 0 25 -4 26 -35 5 -15 -10 -25 -12
-25 -5 0 6 7 11 15 11 8 0 15 6 15 13 0 16 36 15 52 -1z m962 -8 c3 -8 2 -12
-4 -9 -6 3 -10 10 -10 16 0 14 7 11 14 -7z m-1267 -38 c-1 -6 4 -10 12 -8 9 2
11 -3 7 -13 -3 -8 3 -30 14 -48 11 -17 20 -26 20 -19 0 22 15 13 16 -10 4 -54
8 -64 30 -66 12 -1 25 5 28 13 6 17 26 20 26 4 0 -5 -4 -8 -8 -5 -4 2 -8 -4
-8 -14 0 -18 2 -18 18 -3 10 8 15 20 11 26 -3 6 -1 7 6 3 9 -6 9 -12 -1 -24
-17 -22 -50 -47 -63 -47 -5 -1 -9 -6 -8 -12 1 -6 -5 -17 -15 -24 -14 -11 -15
-11 -5 0 9 11 9 17 -1 27 -8 7 -12 27 -11 44 2 21 -2 30 -12 30 -8 0 -11 -4
-8 -10 3 -5 1 -10 -4 -10 -6 0 -11 5 -11 12 0 6 -3 8 -7 5 -3 -4 -12 -2 -20 4
-10 9 -13 7 -14 -7 0 -11 -2 -27 -4 -36 -2 -11 3 -18 12 -18 9 0 13 6 9 15 -3
9 0 15 8 15 7 0 13 -7 13 -15 0 -8 -4 -15 -9 -15 -5 0 -4 -9 2 -19 8 -16 6
-20 -8 -24 -13 -4 -12 -5 5 -6 13 -1 23 6 26 17 4 15 5 15 6 -1 1 -11 -7 -21
-19 -24 -16 -4 -18 -8 -9 -19 9 -12 9 -13 -4 -8 -8 3 -18 12 -21 20 -6 15 -66
17 -66 2 0 -4 -10 -8 -22 -7 -21 0 -21 1 -4 8 19 7 19 8 0 15 -11 4 -20 3 -22
-3 -2 -6 -8 -11 -13 -11 -6 0 -7 5 -4 10 3 6 1 10 -4 10 -6 0 -11 -7 -11 -15
0 -16 -9 -19 -34 -9 -20 8 -11 24 15 24 10 0 19 5 19 11 0 5 6 7 13 3 6 -4 3
3 -7 15 -20 22 -20 22 0 15 15 -5 16 -4 4 4 -10 8 -18 8 -27 0 -8 -6 -15 -9
-16 -7 -1 2 -9 12 -16 22 -12 15 -12 17 5 10 17 -6 17 -5 5 10 -7 9 -17 15
-21 12 -5 -3 -11 -1 -14 3 -3 5 10 24 29 42 19 19 35 30 35 26 0 -5 8 -2 17 5
11 10 14 10 9 2 -4 -7 -3 -13 3 -13 18 0 23 20 6 26 -14 6 -14 8 1 25 12 13
21 16 34 9 10 -5 20 -7 22 -4 3 2 11 -3 19 -12 12 -15 11 -16 -9 -10 -13 5
-22 3 -22 -3 0 -6 5 -11 11 -11 5 0 7 -4 4 -10 -3 -5 -17 2 -30 18 -14 15 -25
22 -25 15 0 -6 4 -14 9 -17 5 -3 7 -15 4 -26 -3 -11 -9 -17 -14 -14 -5 3 -6
-2 -3 -10 3 -9 1 -16 -5 -16 -6 0 -11 8 -11 18 0 10 -7 19 -15 19 -8 0 -22 -9
-32 -19 -15 -17 -15 -18 10 -18 24 0 26 -2 17 -25 -8 -22 -7 -25 11 -25 16 0
20 5 16 20 -3 11 -1 20 5 20 5 0 9 -10 8 -22 -4 -50 1 -68 23 -79 l22 -12 -20
23 c-17 20 -18 23 -2 17 9 -4 17 -2 17 3 0 6 -5 10 -11 10 -5 0 -8 4 -4 9 3 5
1 12 -3 15 -5 3 -9 20 -8 38 1 30 5 33 34 36 25 3 40 -3 58 -22 16 -15 32 -22
42 -18 13 4 10 8 -13 18 -36 15 -47 59 -12 48 21 -6 21 -6 2 12 -10 10 -20 14
-22 9 -8 -23 -22 -39 -29 -32 -4 3 -2 13 4 20 7 8 9 17 5 20 -3 4 0 13 7 22
15 18 -1 20 -18 3 -9 -9 -12 -9 -12 0 0 7 -4 11 -9 10 -20 -6 -12 18 9 29 25
12 60 -1 57 -21z m327 -7 c-14 -16 -27 -19 -61 -15 -44 5 -66 -9 -42 -26 11
-7 9 -8 -6 -5 -11 2 -19 9 -17 15 1 7 -4 12 -10 13 -7 0 -2 5 12 11 14 6 28
10 33 10 4 -1 7 3 7 9 0 6 7 3 16 -5 8 -9 22 -16 30 -16 20 0 45 25 36 35 -4
5 -1 5 6 1 11 -6 10 -12 -4 -27z m861 21 c4 -7 14 -6 28 2 20 10 21 10 8 -6
-9 -10 -21 -14 -34 -10 -13 4 -17 3 -12 -6 4 -7 19 -9 38 -5 l32 7 -22 -21
c-27 -26 -29 -33 -7 -24 10 4 17 -1 21 -16 3 -11 10 -18 16 -14 6 4 7 1 2 -7
-6 -10 -11 -10 -20 4 -11 14 -13 15 -19 1 -3 -8 0 -15 6 -15 6 0 8 -3 5 -7 -4
-3 -2 -12 3 -18 8 -9 6 -14 -5 -18 -8 -4 -19 1 -24 11 -5 10 -19 18 -31 19
-18 2 -19 -1 -10 -13 9 -10 9 -14 1 -14 -6 0 -11 5 -11 10 0 6 -6 10 -12 9
-21 -4 -88 29 -87 43 0 10 2 10 6 0 2 -6 9 -10 14 -6 5 3 9 0 9 -7 0 -8 5 -7
18 3 9 9 24 13 32 10 11 -4 10 1 -4 17 -11 11 -15 21 -10 21 5 0 15 -9 22 -21
8 -13 19 -18 29 -15 12 5 13 4 5 -7 -7 -8 -9 -17 -5 -20 9 -10 32 26 29 46 -1
9 -13 25 -26 37 -15 13 -18 20 -9 20 11 0 11 2 -1 10 -13 8 -13 10 2 10 9 0
20 -5 23 -10z m-221 -21 c-3 -5 -10 -7 -15 -3 -5 3 -7 10 -3 15 3 5 10 7 15 3
5 -3 7 -10 3 -15z m336 -50 c12 -38 19 -78 17 -87 -3 -9 -5 -4 -6 12 -1 25 -3
27 -18 15 -15 -13 -15 -12 -3 11 8 15 9 25 2 28 -5 1 -7 12 -4 24 4 17 1 20
-14 16 -15 -4 -20 0 -21 16 -1 12 1 15 4 8 3 -6 9 -10 13 -7 5 3 7 12 3 20 -3
8 -3 15 1 15 3 0 15 -32 26 -71z m-1153 55 c24 -7 37 -40 18 -48 -7 -2 -18 1
-24 7 -8 8 -11 5 -11 -10 0 -13 -13 -31 -30 -43 -34 -24 -41 -10 -14 28 9 14
11 22 4 22 -7 0 -5 6 4 15 19 19 25 19 48 -2 17 -15 18 -15 18 1 0 9 -4 14
-10 11 -5 -3 -10 -2 -10 4 0 5 -8 12 -17 14 -10 3 -13 5 -8 6 6 0 20 -2 32 -5z
m857 -33 c-8 -8 -34 -10 -38 -2 -3 4 6 7 19 7 14 0 22 -2 19 -5z m-738 -17
c-3 -17 -27 -44 -40 -44 -7 0 -6 3 2 9 7 4 14 17 15 28 0 11 6 20 13 20 6 0
11 -6 10 -13z m827 3 c3 -8 -1 -14 -8 -14 -7 0 -11 6 -8 14 3 7 6 13 8 13 2 0
5 -6 8 -13z m-86 -13 c-3 -3 -12 -4 -19 -1 -8 3 -5 6 6 6 11 1 17 -2 13 -5z
m-817 -37 c-23 -26 -50 -26 -50 0 0 10 7 14 20 10 10 -3 25 1 31 9 7 8 14 13
16 10 3 -2 -5 -15 -17 -29z m818 -8 c-3 -8 -7 -3 -11 10 -4 17 -3 21 5 13 5
-5 8 -16 6 -23z m-882 -6 c-2 -9 -8 -19 -14 -21 -7 -2 -10 -8 -6 -13 3 -5 1
-9 -4 -9 -5 0 -9 12 -9 26 0 15 3 21 7 14 5 -8 9 -7 13 4 8 21 16 20 13 -1z
m1143 -36 c1 -5 -3 -5 -9 -2 -5 3 -10 16 -9 28 0 21 1 21 9 2 5 -11 9 -24 9
-28z m-179 -1 c0 -4 -8 -5 -17 -2 -15 5 -14 3 2 -10 16 -13 16 -15 3 -11 -11
4 -21 0 -27 -11 -6 -9 -11 -12 -11 -5 0 6 4 14 9 17 10 7 9 25 -2 43 -5 8 -1
8 18 0 14 -7 25 -16 25 -21z m-60 20 c0 -3 -4 -8 -10 -11 -5 -3 -10 -1 -10 4
0 6 5 11 10 11 6 0 10 -2 10 -4z m199 -33 c9 9 14 9 21 -3 12 -19 4 -30 -21
-25 -16 3 -19 0 -15 -11 4 -10 1 -14 -6 -12 -7 3 -13 11 -13 19 0 8 -8 13 -17
11 -25 -4 -34 19 -13 34 15 12 21 11 35 -6 13 -15 19 -17 29 -7z m65 -16 c3
-30 0 -35 -15 -32 -11 2 -19 -1 -19 -7 0 -6 -2 -9 -5 -6 -3 3 1 18 10 34 8 16
15 35 15 43 0 28 12 2 14 -32z m-263 -3 c-5 -16 -10 -21 -10 -12 -1 18 10 51
15 45 2 -1 -1 -16 -5 -33z m105 1 c-3 -13 -7 -28 -9 -32 -3 -5 1 -13 8 -20 11
-10 14 -10 18 0 3 9 8 9 18 -1 12 -11 12 -14 -1 -22 -8 -5 -19 -5 -25 -1 -15
12 -40 -1 -43 -24 -5 -26 -22 -46 -34 -39 -5 3 -6 -5 -2 -20 5 -21 3 -26 -12
-25 -11 0 -14 3 -6 6 6 2 9 9 6 14 -7 12 15 69 27 69 5 0 9 4 9 10 0 5 -8 6
-17 3 -16 -6 -17 -5 -3 11 9 12 16 14 18 7 3 -9 7 -9 18 0 8 6 11 15 8 21 -3
5 0 16 8 25 11 15 11 16 -4 10 -22 -8 -23 -3 -2 17 21 22 25 20 20 -9z m185
-143 c-9 -14 -10 -13 -7 8 3 14 6 52 7 85 l3 60 3 -68 c2 -37 -1 -75 -6 -85z
m-1551 126 c0 -5 5 -6 10 -3 6 3 10 1 10 -4 0 -6 -5 -11 -11 -11 -5 0 -7 -6
-4 -12 4 -7 0 -5 -8 5 -17 21 -34 22 -34 2 0 -8 6 -15 14 -15 7 0 13 -4 13 -9
0 -4 -11 -6 -25 -3 -21 4 -24 8 -19 26 l7 21 -24 -20 -24 -20 22 25 c21 24 73
37 73 18z m1486 -58 c8 0 14 8 14 17 0 15 2 14 14 -2 17 -24 4 -57 -19 -49 -8
4 -15 1 -15 -5 0 -6 5 -11 11 -11 8 0 8 -4 0 -14 -9 -11 -9 -16 0 -22 7 -4 18
1 27 12 8 10 12 12 8 4 -3 -8 -9 -22 -12 -32 -6 -18 -37 -29 -50 -19 -12 8
-14 41 -3 41 17 0 9 19 -12 30 -28 15 -37 4 -13 -16 17 -14 17 -15 1 -10 -11
3 -16 2 -12 -4 3 -6 1 -10 -4 -10 -12 0 -13 2 -16 50 -2 19 -1 30 2 23 8 -23
33 -2 27 23 -5 18 -2 24 10 24 9 0 17 6 17 13 1 6 4 0 6 -15 2 -16 11 -28 19
-28z m-212 25 c3 -8 1 -15 -4 -15 -6 0 -10 7 -10 15 0 8 2 15 4 15 2 0 6 -7
10 -15z m-1224 -5 c-8 -5 -19 -10 -25 -10 -5 0 -3 5 5 10 8 5 20 10 25 10 6 0
3 -5 -5 -10z m-38 -28 c-7 -2 -10 -7 -8 -11 3 -4 7 -19 10 -33 3 -21 1 -25
-15 -21 -10 3 -19 9 -19 14 0 5 6 7 13 5 6 -1 9 -1 5 1 -4 2 -4 11 -1 19 3 8
0 14 -7 14 -6 0 -8 -4 -5 -10 11 -17 -11 -11 -29 9 -16 17 -16 18 7 14 14 -3
28 0 32 6 3 6 11 8 18 4 8 -5 8 -8 -1 -11z m-88 -17 c-4 -9 0 -15 10 -15 9 0
16 -5 16 -11 0 -5 5 -7 10 -4 6 3 10 1 10 -4 0 -12 -13 -14 -24 -4 -11 12 -66
12 -66 0 0 -6 -6 -2 -14 8 -13 18 -14 17 -9 -10 3 -22 2 -26 -6 -15 -5 8 -7
18 -4 24 3 5 1 6 -5 2 -14 -9 2 -54 25 -71 10 -7 13 -17 8 -25 -6 -9 -12 -5
-23 16 -14 27 -16 27 -24 9 -5 -13 -6 -8 -2 15 l6 35 -28 -25 -29 -25 20 25
c52 67 80 90 107 90 20 0 26 -4 22 -15z m1452 -5 c5 1 10 -4 12 -12 2 -9 0 -8
-7 2 -10 15 -12 13 -15 -12 0 -6 -8 -13 -16 -15 -12 -4 -12 -3 -1 5 9 6 10 12
3 16 -6 4 -8 14 -5 22 4 11 8 12 13 4 4 -6 11 -11 16 -10z m-1207 -4 c13 0 26
-8 28 -16 4 -13 3 -13 -5 -1 -9 12 -13 12 -26 2 -9 -8 -16 -10 -16 -7 0 4 -7
0 -16 -8 -22 -22 -41 -20 -21 2 20 22 11 37 -11 19 -8 -6 -17 -11 -19 -9 -1 1
-11 2 -20 1 -14 0 -13 -2 5 -9 30 -12 28 -17 -8 -18 -16 0 -30 3 -30 7 0 13
36 42 43 34 4 -3 7 -1 7 7 0 9 9 10 33 5 17 -4 43 -8 56 -9z m1082 -62 c-8
-18 -16 -32 -17 -31 -1 1 3 23 9 50 8 30 14 41 17 31 4 -9 -1 -32 -9 -50z
m-1023 11 c-3 -3 -9 2 -12 12 -6 14 -5 15 5 6 7 -7 10 -15 7 -18z m-291 0 c5
-4 2 -5 -4 -1 -7 4 -13 2 -13 -3 0 -6 5 -11 11 -11 6 0 9 -9 6 -20 -4 -15 0
-20 14 -20 10 0 19 -4 19 -10 0 -6 -9 -6 -25 0 -16 6 -25 6 -25 0 0 -6 10 -11
23 -11 16 -1 18 -2 5 -6 -10 -2 -18 -8 -18 -13 0 -5 7 -6 17 -3 11 4 14 3 9
-5 -4 -7 -2 -12 6 -12 9 0 9 -3 -2 -10 -12 -8 -10 -10 8 -10 13 0 20 -4 17
-10 -4 -6 -11 -8 -16 -5 -16 10 -31 -5 -19 -20 8 -9 6 -14 -6 -19 -9 -4 -19
-4 -22 -1 -3 3 1 5 9 5 12 0 11 2 -1 10 -13 8 -12 11 5 24 12 9 15 15 7 16 -7
0 -11 4 -8 8 2 4 -4 14 -16 21 -11 7 -17 8 -14 3 3 -6 -1 -12 -9 -16 -11 -4
-11 2 4 30 23 42 18 64 -15 64 -17 0 -22 4 -17 16 5 13 7 13 14 2 8 -11 13 -5
11 13 -1 9 36 4 45 -6z m1463 -5 c0 -10 -31 -24 -45 -21 -5 1 -4 -3 3 -11 11
-11 14 -10 22 2 7 12 12 12 22 2 6 -6 8 -12 4 -12 -5 0 -2 -8 5 -17 11 -15 11
-16 -1 -5 -22 19 -40 14 -38 -10 1 -17 8 -23 24 -23 12 0 22 2 22 5 0 3 1 10
2 15 2 6 3 23 4 39 0 16 7 31 14 33 7 3 10 -1 6 -11 -3 -9 3 -20 15 -28 12 -7
21 -19 21 -26 0 -7 -4 -11 -9 -7 -13 8 -84 -62 -76 -75 4 -6 1 -18 -6 -26 -10
-13 -10 -17 2 -25 8 -5 20 -7 27 -4 6 2 12 0 12 -5 0 -6 -7 -10 -15 -10 -8 0
-15 -5 -15 -11 0 -5 -4 -7 -10 -4 -6 3 -7 -1 -4 -9 3 -9 10 -13 15 -10 5 3 12
-2 15 -11 5 -13 9 -14 15 -4 4 8 1 18 -9 25 -15 12 -15 12 3 9 11 -2 23 -4 28
-4 4 -1 0 -13 -10 -27 -16 -25 -17 -25 -30 -8 -7 10 -13 16 -14 13 0 -2 -2
-12 -4 -21 -2 -11 3 -18 13 -18 29 0 1 -14 -33 -17 -39 -2 -51 9 -35 34 10 16
10 15 5 -4 -4 -16 -2 -21 10 -19 20 3 44 26 27 26 -8 0 -11 12 -8 37 5 48 -2
67 -19 53 -8 -7 -16 -7 -19 -2 -3 6 0 12 8 15 8 3 13 14 11 24 -2 10 -4 20 -4
23 -1 3 -6 -2 -12 -10 -9 -13 -10 -12 -5 2 3 11 -2 19 -13 23 -10 3 -18 13
-18 21 0 15 1 15 12 0 13 -17 30 -23 20 -6 -3 6 1 18 10 27 12 12 13 18 5 23
-13 8 -4 51 13 62 12 7 37 -1 37 -12z m-1395 -17 c-3 -9 1 -25 8 -37 12 -17
12 -24 2 -33 -7 -6 -15 -11 -17 -10 -2 1 3 -3 11 -10 8 -7 18 -10 24 -6 6 3 7
1 3 -5 -5 -8 0 -12 13 -12 12 0 21 5 21 10 0 6 8 10 17 10 32 0 -22 -43 -56
-44 -28 -1 -46 -16 -19 -16 15 0 1 -13 -17 -16 -8 -1 -13 1 -10 6 3 5 -1 10
-7 12 -8 3 0 12 17 21 29 16 29 17 8 23 -13 3 -23 13 -23 20 0 8 -5 14 -11 14
-8 0 -7 5 2 16 7 8 14 30 15 47 3 41 2 39 15 32 6 -4 8 -14 4 -22z m25 -4 c0
-11 -4 -18 -10 -14 -5 3 -7 12 -3 20 7 21 13 19 13 -6z m110 9 c0 -4 -5 -8
-10 -8 -6 0 -8 -12 -5 -27 3 -16 2 -22 -1 -15 -3 6 -13 12 -22 11 -11 0 -12
-2 -4 -6 6 -2 10 -9 7 -13 -3 -5 -12 -7 -20 -4 -15 6 -10 29 12 55 14 16 43
22 43 7z m1405 -6 c-6 -4 -11 -20 -12 -37 -1 -16 -10 -50 -19 -74 -16 -41 -18
-43 -31 -25 -12 16 -11 19 7 26 22 8 26 23 8 34 -8 5 -9 2 -5 -9 4 -10 2 -17
-4 -17 -7 0 -9 9 -5 23 3 12 6 30 6 41 0 16 2 17 17 5 15 -12 16 -12 10 3 -6
18 20 54 31 43 4 -3 2 -9 -3 -13z m-1355 2 c0 -3 -11 -19 -25 -36 -14 -16 -25
-25 -25 -20 0 5 9 17 20 27 16 14 17 20 8 27 -10 6 -8 8 5 8 9 0 17 -3 17 -6z
m-220 -14 c0 -5 -4 -10 -10 -10 -5 0 -10 5 -10 10 0 6 5 10 10 10 6 0 10 -4
10 -10z m100 6 c0 -2 -7 -7 -16 -10 -8 -3 -12 -2 -9 4 6 10 25 14 25 6z m-275
-34 c-3 -3 -11 0 -18 7 -9 10 -8 11 6 5 10 -3 15 -9 12 -12z m102 -4 c-3 -8
-6 -5 -6 6 -1 11 2 17 5 13 3 -3 4 -12 1 -19z m1323 -20 c-6 -7 -18 -22 -26
-33 -9 -11 -5 -1 8 23 12 24 24 39 26 33 2 -6 -2 -16 -8 -23z m-1358 7 c9 -6
16 -19 15 -30 -1 -11 4 -20 13 -20 8 0 16 -11 18 -25 3 -24 3 -24 -10 -6 -10
13 -21 16 -36 12 -12 -4 -20 -12 -16 -17 3 -6 12 -5 22 3 11 8 10 5 -3 -10
l-19 -23 -9 23 c-4 12 -7 36 -6 53 2 17 0 35 -4 42 -8 13 10 12 35 -2z m1533
5 c3 -5 1 -10 -4 -10 -6 0 -11 5 -11 10 0 6 2 10 4 10 3 0 8 -4 11 -10z
m-1585 -10 c13 -8 13 -10 -2 -10 -11 0 -15 -5 -12 -15 7 -18 -3 -20 -19 -2
-29 31 -4 51 33 27z m248 -6 c-1 -5 -9 -9 -16 -10 -10 -2 -11 1 -1 12 12 14
24 13 17 -2z m-317 -17 c-10 -9 -11 -8 -5 6 3 10 9 15 12 12 3 -3 0 -11 -7
-18z m1504 13 c-3 -5 -1 -10 4 -10 6 0 11 5 11 10 0 6 7 10 15 10 25 0 17 -15
-15 -27 -32 -12 -54 2 -29 18 18 11 22 11 14 -1z m221 -26 c-5 -17 -1 -35 10
-53 9 -14 11 -21 4 -14 -7 6 -20 9 -29 6 -14 -4 -14 -3 -1 6 8 5 11 14 6 18
-4 4 -13 0 -20 -9 -7 -10 -16 -15 -19 -11 -9 9 -9 24 1 21 4 -2 8 2 9 7 0 6
-3 9 -9 7 -5 -1 -1 9 9 22 25 34 47 34 39 0z m-171 -35 c-5 -34 -35 -69 -63
-74 -9 -2 -19 -4 -22 -5 -3 0 6 -7 20 -15 14 -8 21 -14 15 -14 -5 0 -21 6 -35
14 l-25 14 38 15 c20 9 37 21 37 26 0 13 -17 13 -25 0 -3 -5 -11 -10 -18 -10
-6 0 -3 6 8 13 10 8 15 18 12 23 -3 6 4 16 16 24 20 12 21 12 8 -4 -12 -15
-12 -19 4 -34 14 -13 17 -14 13 -2 -5 15 7 60 16 60 2 0 3 -14 1 -31z m-1475
5 c0 -6 -6 -12 -12 -11 -33 1 -49 -4 -43 -13 9 -14 -29 -12 -43 2 -9 9 -12 7
-12 -9 0 -12 -4 -25 -10 -28 -16 -10 -12 -45 5 -45 8 0 15 -4 15 -10 0 -5 -5
-10 -11 -10 -5 0 -7 -4 -4 -10 3 -5 1 -10 -5 -10 -7 0 -10 7 -7 15 4 8 2 17
-3 20 -6 4 -10 3 -10 -2 0 -4 -3 -19 -7 -32 -5 -21 -3 -23 15 -19 12 4 22 2
22 -3 0 -5 -7 -9 -15 -9 -8 0 -15 -5 -15 -11 0 -5 -4 -8 -9 -4 -14 8 -5 70 19
136 20 52 24 57 35 42 11 -15 14 -15 35 5 24 22 60 26 60 6z m1408 2 c-7 -8
-15 -12 -17 -11 -5 6 10 25 20 25 5 0 4 -6 -3 -14z m-31 -16 c14 -11 21 -20
15 -20 -6 0 -18 7 -27 16 -15 15 -19 14 -53 -17 l-37 -34 34 38 c19 20 37 37
39 37 2 0 15 -9 29 -20z m-1367 -32 c0 -7 -5 -6 -15 2 -15 12 -20 4 -16 -22 0
-5 -3 -8 -8 -8 -15 0 -19 23 -7 42 7 12 15 14 28 7 10 -5 18 -15 18 -21z
m1340 18 c0 -2 -8 -10 -17 -17 -16 -13 -17 -12 -4 4 13 16 21 21 21 13z
m-1293 -21 c0 -8 -4 -12 -9 -9 -5 3 -6 10 -3 15 9 13 12 11 12 -6z m-97 -52
c0 -4 -5 -2 -12 5 -20 20 -28 14 -18 -13 5 -14 7 -25 4 -25 -4 0 -2 -6 4 -13
6 -7 11 -22 10 -32 0 -11 3 -29 7 -39 7 -16 5 -18 -8 -13 -9 3 -17 2 -17 -3 0
-6 5 -10 11 -10 7 0 5 -9 -5 -24 -11 -18 -13 -27 -4 -32 7 -4 8 -3 4 4 -4 7
-2 12 3 12 17 0 13 -27 -4 -34 -8 -3 -15 0 -15 6 0 7 -7 3 -16 -8 -15 -18 -15
-18 -5 2 6 12 7 24 4 28 -3 3 -1 6 6 6 7 0 9 5 5 12 -4 7 -3 8 5 4 8 -6 10 -1
6 17 -4 14 -2 28 4 31 6 4 11 12 11 17 0 6 -4 8 -9 5 -5 -3 -12 1 -15 10 -3 8
-2 12 4 9 5 -3 8 8 7 25 -1 16 -5 30 -8 30 -3 0 -6 18 -7 39 l-2 40 25 -25
c14 -14 25 -28 25 -31z m205 37 c-3 -5 -1 -11 4 -14 5 -4 12 2 14 11 4 14 5
14 6 2 0 -8 -6 -24 -14 -35 -8 -10 -15 -14 -14 -9 3 22 -2 36 -10 30 -12 -7
-24 12 -16 25 3 5 12 7 20 4 8 -4 13 -10 10 -14z m1330 10 c-3 -5 -1 -11 4
-11 6 -1 15 -2 20 -3 5 0 13 -5 18 -10 5 -5 3 -6 -4 -2 -15 9 -17 -5 -3 -22 7
-9 7 -9 -1 -3 -8 6 -17 5 -25 -4 -17 -17 -18 -29 -2 -19 7 4 8 3 4 -5 -11 -17
3 -51 21 -51 14 0 14 -2 -1 -19 -26 -29 -53 -32 -60 -8 -3 12 0 27 6 35 25 30
19 45 -18 39 -19 -3 -34 -2 -34 2 0 4 7 8 15 9 8 1 22 3 30 4 8 1 12 5 9 10
-3 5 -9 6 -14 3 -4 -3 -14 2 -21 11 -10 12 -10 15 2 12 8 -2 13 3 12 10 -2 6
2 12 7 12 6 0 10 -9 10 -20 0 -12 7 -20 16 -20 10 0 14 5 10 15 -3 8 -9 22
-12 30 -3 8 -1 15 6 15 6 0 8 -4 5 -10z m140 1 c3 -5 2 -12 -3 -15 -5 -3 -9 1
-9 9 0 17 3 19 12 6z m-273 -15 c7 4 8 2 4 -5 -9 -13 -26 -5 -25 12 0 9 2 8 6
-1 2 -6 10 -9 15 -6z m-1312 -11 c0 4 7 0 15 -9 20 -19 19 -23 -7 -37 -20 -11
-21 -10 -10 3 10 13 9 18 -5 29 -16 12 -17 12 -7 -1 9 -12 7 -19 -8 -35 -14
-14 -19 -16 -16 -5 2 8 7 18 12 21 4 4 3 15 -4 25 -6 11 -10 12 -7 4 2 -8 -2
-21 -10 -29 -13 -12 -14 -11 -9 10 6 22 5 21 -9 -3 -14 -26 -35 -38 -35 -20 2
29 57 64 82 51 10 -5 18 -7 18 -4z m1284 -1 c5 -14 4 -15 -9 -4 -17 14 -19 20
-6 20 5 0 12 -7 15 -16z m-69 -4 c-3 -5 6 -22 22 -36 l28 -26 -29 21 c-20 15
-33 18 -40 11 -22 -22 -28 -8 -6 15 24 26 36 33 25 15z m-1127 -9 c11 -7 10
-9 -3 -14 -9 -4 -14 -3 -10 2 3 5 -1 12 -7 14 -7 3 -8 6 -3 6 6 0 16 -3 23 -8z
m1190 -26 c-3 -3 -9 2 -12 12 -6 14 -5 15 5 6 7 -7 10 -15 7 -18z m29 0 c0 -8
-4 -12 -9 -9 -5 3 -6 10 -3 15 9 13 12 11 12 -6z m-1206 -36 c-9 -23 -9 -22
-8 8 1 18 6 28 10 24 4 -4 3 -18 -2 -32z m1127 13 c2 -7 -6 -12 -20 -11 -19 1
-20 2 -4 6 15 4 16 7 5 15 -12 8 -12 9 0 6 8 -3 17 -10 19 -16z m132 14 c0 -2
-9 -6 -20 -9 -11 -3 -20 -1 -20 4 0 5 9 9 20 9 11 0 20 -2 20 -4z m-1410 -14
c0 -4 14 -16 30 -25 17 -10 30 -25 30 -33 0 -8 -5 -12 -10 -9 -6 4 -9 1 -8 -7
2 -7 -5 -12 -14 -12 -10 1 -15 -2 -12 -7 3 -5 0 -9 -5 -9 -6 0 -11 8 -11 17 0
23 -9 12 -13 -17 -2 -13 -9 -26 -15 -28 -15 -5 -15 -1 -2 32 6 17 6 26 0 26
-6 0 -10 8 -10 18 0 10 3 13 8 6 14 -21 48 -25 63 -7 13 15 12 16 -8 11 -13
-4 -23 -2 -23 3 0 5 5 9 11 9 6 0 1 9 -12 20 -13 10 -18 19 -11 20 6 0 12 -4
12 -8z m1227 -19 c-1 -15 3 -28 8 -28 6 0 19 -6 30 -13 19 -11 19 -12 -5 -8
-17 2 -28 -3 -36 -18 -12 -23 -7 -49 7 -40 5 3 6 11 3 17 -4 7 -3 8 2 4 5 -5
9 -14 9 -20 0 -7 9 -10 20 -9 16 3 17 2 6 -12 -14 -17 -36 -22 -26 -7 3 5 1
12 -5 16 -5 3 -10 1 -10 -4 0 -6 -5 -11 -12 -11 -6 0 -8 3 -5 7 4 3 0 17 -9
31 -15 22 -14 25 6 39 19 14 20 17 6 32 -13 14 -13 20 -3 31 10 12 9 12 -5 1
-10 -7 -16 -17 -13 -21 3 -5 1 -11 -4 -15 -6 -3 -8 -13 -5 -23 5 -14 4 -14 -4
-2 -6 8 -8 19 -5 25 4 5 2 6 -3 2 -13 -12 -12 -30 3 -45 7 -7 9 -20 6 -29 -4
-10 -2 -14 4 -10 5 3 10 -1 10 -10 0 -13 -4 -12 -18 5 -18 23 -35 30 -23 10 5
-7 3 -8 -6 -3 -10 6 -9 11 5 22 11 7 13 13 7 13 -22 0 -13 43 15 72 34 36 52
36 50 1z m-1117 -3 c0 -11 7 -20 15 -20 10 0 15 -9 14 -27 -2 -24 -2 -25 -6
-6 -3 18 -7 20 -18 10 -7 -6 -11 -15 -8 -19 2 -5 -3 -8 -11 -8 -12 0 -14 -7
-9 -30 4 -24 3 -29 -9 -25 -10 4 -13 15 -10 31 4 20 1 23 -14 17 -11 -4 -13
-8 -6 -11 7 -2 12 -8 12 -13 0 -6 -4 -8 -8 -5 -5 3 -9 -1 -9 -9 0 -8 4 -12 8
-10 4 3 9 -2 13 -10 5 -15 37 -22 35 -7 -1 4 -1 16 0 27 1 16 3 17 10 6 7 -11
10 -10 14 5 4 16 5 16 6 -3 0 -13 -4 -23 -10 -23 -5 0 -8 -3 -5 -8 8 -13 -22
-45 -38 -39 -9 4 -18 1 -22 -5 -5 -7 -2 -8 6 -3 8 5 11 4 6 -3 -3 -5 -3 -12 1
-15 5 -2 2 -2 -4 -1 -7 2 -13 -2 -13 -10 0 -20 11 -26 31 -15 16 8 19 6 19
-13 0 -18 -2 -20 -10 -8 -5 8 -12 11 -16 7 -4 -3 -1 -13 6 -22 7 -9 10 -18 6
-22 -3 -3 -6 -1 -6 6 0 7 -5 9 -12 5 -6 -4 -8 -3 -4 4 3 6 -2 15 -11 21 -10 6
-14 11 -10 11 4 0 3 9 -3 20 -8 15 -8 20 1 20 7 0 9 3 6 6 -3 4 -1 16 5 28 11
20 10 20 -7 6 -17 -14 -18 -13 -12 5 7 19 7 19 -8 1 -8 -10 -12 -22 -10 -27 3
-4 0 -11 -6 -15 -8 -4 -9 -3 -5 4 4 7 1 12 -6 12 -9 0 -9 3 2 10 8 5 10 10 3
10 -6 0 -9 9 -6 21 5 19 4 20 -18 10 -23 -12 -23 -11 -5 3 11 9 28 14 38 10
12 -3 18 0 18 10 0 10 -6 13 -17 10 -10 -4 -3 3 15 15 18 12 37 19 42 16 5 -3
11 -1 15 5 3 5 2 10 -3 10 -17 0 -21 40 -5 55 20 21 33 19 33 -5z m1360 5 c0
-8 -4 -15 -8 -15 -5 0 -9 7 -9 15 0 8 4 15 9 15 4 0 8 -7 8 -15z m-156 -21 c3
-7 -3 -10 -17 -7 -21 4 -21 3 2 -10 13 -8 20 -17 15 -20 -13 -7 -51 26 -47 40
5 15 41 13 47 -3z m90 0 c3 -8 2 -12 -4 -9 -6 3 -10 -5 -10 -19 0 -14 -5 -28
-10 -31 -6 -4 -8 -11 -4 -16 3 -5 10 -7 15 -4 5 4 9 1 9 -4 0 -6 -4 -11 -9
-11 -5 0 -7 -8 -4 -19 3 -10 0 -22 -5 -25 -13 -8 -28 14 -15 23 12 8 11 32 -2
29 -5 -2 -9 -7 -7 -12 2 -5 -6 -6 -16 -4 -22 6 -47 -26 -35 -45 5 -9 3 -9 -9
0 -8 7 -18 10 -21 6 -4 -3 -7 -2 -7 4 0 6 9 13 20 16 11 3 20 10 20 17 0 6 -4
8 -10 5 -5 -3 -10 -1 -10 5 0 6 6 10 13 9 26 -3 47 1 47 11 0 6 -10 8 -23 5
-12 -3 -35 0 -50 8 -26 14 -27 15 -7 20 13 3 23 0 26 -8 4 -8 14 -11 27 -8 12
3 29 6 38 6 10 1 16 11 16 29 0 15 -4 25 -8 22 -4 -2 -10 -1 -13 4 -2 4 6 9
19 10 13 1 26 -5 29 -14z m147 -33 c-11 -15 -28 -34 -38 -42 -17 -13 -17 -13
-3 6 8 11 21 26 28 33 6 7 12 20 12 28 0 8 5 12 10 9 6 -4 3 -17 -9 -34z
m-1641 9 c0 -5 -7 -7 -15 -4 -9 4 -15 0 -15 -10 0 -9 -7 -16 -15 -16 -11 0
-10 6 7 25 20 23 38 25 38 5z m-73 -27 c-3 -10 -5 -4 -5 12 0 17 2 24 5 18 2
-7 2 -21 0 -30z m1604 7 c6 0 7 5 3 12 -5 7 -3 8 5 4 7 -5 10 -14 7 -22 -3 -8
-1 -13 3 -11 5 1 8 -2 8 -8 -1 -5 -8 -8 -17 -7 -18 5 -16 2 -24 32 -3 14 -3
19 0 13 3 -7 10 -13 15 -13z m-23 -26 c9 -17 9 -24 -1 -33 -10 -8 -13 -3 -13
24 0 19 1 33 2 32 1 -1 6 -12 12 -23z m-1530 -33 c-1 -15 -7 -28 -14 -28 -9 0
-9 5 -1 20 9 15 9 21 0 24 -7 3 -13 9 -13 14 0 4 7 6 15 3 9 -4 14 -17 13 -33z
m1196 14 c-4 -8 -1 -15 7 -15 7 0 10 -2 7 -5 -3 -3 -13 -3 -22 1 -13 5 -14 9
-5 20 15 18 20 18 13 -1z m93 -44 c2 -17 -2 -21 -28 -21 -17 0 -37 7 -45 15
-14 13 -14 15 0 15 8 0 18 5 22 12 4 6 3 8 -3 5 -6 -4 -13 -1 -16 7 -4 11 1
11 31 1 23 -8 36 -20 39 -34z m289 27 c1 -9 -10 -27 -24 -40 -14 -13 -22 -18
-19 -12 4 7 0 15 -9 18 -9 4 -14 9 -11 13 4 3 13 0 22 -7 15 -13 19 -4 18 38
-1 19 20 9 23 -10z m-1616 -18 c0 -5 -2 -10 -4 -10 -3 0 -8 5 -11 10 -3 6 -1
10 4 10 6 0 11 -4 11 -10z m1192 -12 c-7 -7 -12 -8 -12 -2 0 14 12 26 19 19 2
-3 -1 -11 -7 -17z m203 -4 c18 -12 24 -23 21 -40 -3 -12 1 -25 7 -28 7 -3 3
-4 -8 -3 -14 1 -20 -4 -19 -15 1 -10 -2 -15 -7 -12 -12 7 -11 34 1 34 7 0 7 6
0 20 -10 19 -12 19 -36 4 -21 -15 -24 -15 -18 -1 3 8 12 18 20 21 8 3 14 11
14 18 0 10 -2 10 -9 0 -7 -11 -9 -11 -14 2 -8 21 16 21 48 0z m89 -1 c-16 -16
-15 -18 12 -30 16 -7 23 -13 17 -14 -7 -1 -18 -2 -25 -3 -6 0 -12 -11 -14 -22
-3 -20 -1 -21 20 -11 14 7 22 15 20 19 -3 5 2 8 11 8 12 0 15 6 10 20 -6 20 9
28 19 11 8 -12 -32 -61 -50 -61 -8 0 -13 -4 -10 -8 3 -5 -11 -24 -31 -43 -20
-19 -33 -29 -29 -22 3 6 -2 17 -11 23 -15 8 -13 9 10 4 26 -6 38 8 17 21 -14
8 -13 36 1 33 6 -2 13 5 14 15 2 11 -3 17 -14 17 -10 0 -18 6 -18 14 0 8 6 12
14 9 9 -4 16 3 20 16 3 11 12 21 20 21 12 0 11 -3 -3 -17z m-1197 -25 c-3 -8
-6 -5 -6 6 -1 11 2 17 5 13 3 -3 4 -12 1 -19z m883 18 c0 -2 -8 -10 -17 -17
-16 -13 -17 -12 -4 4 13 16 21 21 21 13z m-1162 -53 c9 -8 11 -13 4 -13 -7 0
-13 -8 -13 -17 -2 -22 -17 35 -17 62 l0 20 5 -20 c3 -11 12 -26 21 -32z m57
28 c-3 -11 -1 -22 5 -26 6 -3 10 3 10 16 0 12 3 19 7 15 8 -8 12 -46 4 -42 -3
2 -11 -2 -18 -9 -10 -11 -7 -15 17 -20 19 -4 30 -13 30 -23 0 -15 -2 -15 -10
-2 -8 13 -10 12 -10 -2 0 -10 -5 -18 -11 -18 -7 0 -9 9 -6 21 5 18 2 20 -21
15 -20 -5 -23 -4 -12 4 13 9 13 10 0 10 -9 0 -11 3 -5 8 14 10 17 32 4 32 -5
0 -7 5 -4 10 3 6 0 10 -7 11 -10 0 13 15 30 18 2 1 1 -8 -3 -18z m1123 7 c-2
-7 -7 -17 -13 -21 -5 -5 2 -6 18 -3 21 5 27 3 27 -10 0 -11 -5 -14 -17 -10
-10 4 -14 4 -10 0 4 -4 2 -12 -3 -19 -7 -8 -1 -12 21 -12 16 0 25 4 18 8 -6 4
-8 12 -5 18 11 17 26 13 26 -6 1 -15 4 -14 23 7 28 30 47 36 47 14 0 -8 -4
-12 -10 -9 -8 5 -15 -31 -11 -57 0 -5 -4 -8 -10 -8 -6 0 -9 9 -6 20 6 24 1 25
-19 6 -8 -8 -23 -13 -34 -11 -11 2 -20 -2 -20 -8 0 -7 -4 -6 -10 3 -5 8 -10
11 -10 5 0 -5 -5 -3 -10 5 -5 8 -7 24 -3 35 5 17 4 18 -9 8 -16 -14 -28 -8
-28 14 0 7 6 13 14 13 8 0 16 7 20 15 7 18 17 20 14 3z m55 -1 c7 3 9 3 5 -2
-4 -4 0 -14 10 -22 16 -12 15 -13 -3 -6 -22 7 -35 22 -34 38 0 6 3 4 6 -3 2
-6 10 -9 16 -5z m132 -37 c-5 -15 -12 -20 -23 -16 -10 4 -6 -3 8 -14 14 -11
28 -20 32 -20 3 0 4 -9 1 -20 -4 -15 0 -20 13 -21 15 0 15 -2 4 -6 -8 -4 -20
-13 -26 -21 -9 -12 -14 -12 -31 -1 -17 10 -19 15 -8 26 20 19 30 16 14 -4 -13
-16 -12 -17 4 -4 25 20 23 55 -3 48 -13 -3 -20 0 -20 9 0 8 -3 13 -7 13 -20
-3 -23 2 -9 16 8 8 22 15 30 15 9 0 15 3 15 8 -3 15 1 25 7 19 3 -3 3 -15 -1
-27z m-1078 -12 c-3 -8 -6 -5 -6 6 -1 11 2 17 5 13 3 -3 4 -12 1 -19z m-137
-3 c5 3 11 1 15 -5 3 -5 1 -10 -5 -10 -6 0 -9 -4 -5 -9 3 -5 1 -12 -5 -16 -5
-3 -10 1 -10 9 0 9 -4 16 -10 16 -5 0 -6 8 -3 17 4 11 8 13 11 5 2 -7 8 -10
12 -7z m-140 -34 c-10 -20 1 -61 16 -61 3 0 3 4 -1 9 -3 5 0 13 6 17 7 4 9 3
6 -3 -4 -6 0 -14 8 -17 8 -3 14 -11 13 -17 -2 -6 3 -14 11 -17 10 -3 13 2 9
22 -6 28 1 33 19 15 9 -9 7 -17 -8 -32 -17 -19 -20 -19 -36 -5 -10 8 -23 13
-30 11 -6 -2 -16 12 -23 31 -9 27 -8 39 2 55 16 26 23 19 8 -8z m1402 7 c-7
-7 -12 -8 -12 -2 0 14 12 26 19 19 2 -3 -1 -11 -7 -17z m-258 -7 c3 -5 -1 -11
-9 -14 -9 -4 -12 -1 -8 9 6 16 10 17 17 5z m-836 -27 c8 -15 8 -21 -1 -21 -7
0 -13 11 -13 24 -2 27 -1 27 14 -3z m995 11 c-3 -9 -8 -14 -10 -11 -3 3 -2 9
2 15 9 16 15 13 8 -4z m-200 -10 c-3 -9 -8 -14 -10 -11 -3 3 -2 9 2 15 9 16
15 13 8 -4z m134 -6 c-5 -17 -3 -18 10 -7 14 11 15 11 12 -1 -3 -8 -14 -20
-25 -28 -18 -12 -20 -11 -19 4 3 22 15 53 22 53 3 0 3 -9 0 -21z m-1077 -4 c7
-9 10 -18 6 -22 -3 -3 -6 0 -6 7 0 9 -5 7 -16 -6 -14 -18 -15 -18 -4 4 7 15 7
22 0 22 -5 0 -10 -5 -10 -11 0 -5 -5 -7 -11 -3 -8 4 -7 9 2 15 19 12 25 11 39
-6z m80 11 c0 -2 -6 -9 -14 -15 -11 -9 -16 -9 -22 0 -4 7 -3 9 4 5 6 -3 13 -2
17 4 6 10 15 14 15 6z m941 -8 c0 -10 2 -10 6 0 8 20 22 4 16 -18 -4 -16 -11
-19 -27 -14 -17 5 -19 4 -8 -7 15 -16 16 -33 0 -23 -8 5 -9 0 -6 -14 6 -23 -6
-30 -17 -11 -4 6 -13 8 -21 5 -8 -3 -14 1 -14 10 0 9 5 12 12 8 7 -4 8 -3 4 5
-8 12 9 34 34 44 13 5 13 6 0 6 -9 1 -21 -4 -28 -11 -9 -9 -12 -8 -12 4 0 24
59 38 61 16z m-74 -40 c-3 -8 -6 -5 -6 6 -1 11 2 17 5 13 3 -3 4 -12 1 -19z
m-901 0 c4 -7 3 -8 -4 -4 -7 4 -12 2 -12 -5 0 -7 -3 -10 -6 -6 -6 5 3 27 11
27 2 0 7 -5 11 -12z m1077 -40 c2 -21 0 -38 -4 -38 -5 0 -9 6 -9 13 0 7 -9 23
-20 35 -22 23 -14 31 9 10 11 -11 12 -8 6 12 -5 17 -4 22 3 15 6 -5 13 -27 15
-47z m-1008 32 c-3 -5 -12 -10 -18 -10 -7 0 -6 4 3 10 19 12 23 12 15 0z m980
-57 c1 -18 -1 -19 -17 -10 -10 7 -14 13 -8 15 5 2 4 9 -3 17 -8 9 -18 10 -29
4 -20 -11 -21 -9 -12 15 6 15 9 15 37 -1 17 -11 31 -27 32 -40z m-1219 33 c3
-8 14 -13 25 -11 20 4 26 -9 9 -20 -5 -3 -10 0 -10 7 0 10 -3 9 -9 -2 -6 -8
-7 -18 -5 -22 3 -4 3 -8 0 -8 -6 0 -36 55 -36 65 0 11 21 4 26 -9z m61 -8 c-3
-8 -6 -5 -6 6 -1 11 2 17 5 13 3 -3 4 -12 1 -19z m1233 11 c0 -6 7 -8 18 -5
13 6 13 3 -4 -15 -25 -24 -45 -19 -37 11 6 21 23 28 23 9z m-1180 -18 c-6 -12
-6 -22 -1 -25 5 -4 12 0 14 6 4 10 6 10 6 0 1 -7 -6 -15 -15 -19 -13 -5 -13
-8 -2 -15 10 -8 10 -9 -2 -5 -8 2 -14 12 -12 22 2 9 -1 14 -6 11 -6 -3 -9 1
-8 10 1 8 9 20 17 25 20 12 21 11 9 -10z m40 -1 c0 -5 -2 -10 -4 -10 -3 0 -8
5 -11 10 -3 6 -1 10 4 10 6 0 11 -4 11 -10z m124 2 c2 -4 1 -14 -3 -21 -6 -9
-10 -7 -14 8 -5 20 7 29 17 13z m40 -10 c3 -5 -1 -9 -9 -9 -8 0 -12 4 -9 9 3
4 7 8 9 8 2 0 6 -4 9 -8z m104 -48 c2 -1 -8 -1 -22 0 -13 0 -22 3 -20 5 2 3
-6 16 -18 29 -21 24 -20 23 17 -3 22 -16 41 -30 43 -31z m748 41 c-3 -8 0 -15
7 -16 9 0 9 -2 -1 -6 -6 -2 -9 -10 -5 -16 12 -19 12 -36 1 -44 -7 -4 -9 1 -6
13 6 25 -9 39 -44 40 -30 0 -31 -1 -18 -31 7 -17 9 -17 9 -2 2 33 41 9 41 -25
0 -10 6 -18 13 -19 9 0 9 -2 -1 -6 -6 -2 -10 -8 -7 -13 3 -4 -2 -13 -10 -20
-13 -10 -16 -7 -21 19 -8 36 -24 52 -24 22 0 -11 5 -23 10 -26 6 -3 10 -16 10
-28 0 -18 -2 -19 -10 -7 -8 12 -10 10 -11 -10 -1 -14 -5 20 -10 75 -4 55 -5
102 -3 105 3 2 14 -1 24 -8 11 -7 20 -8 20 -3 0 5 8 12 18 14 9 3 19 5 21 6 2
0 1 -6 -3 -14z m-938 -20 c-3 -3 -9 2 -12 12 -6 14 -5 15 5 6 7 -7 10 -15 7
-18z m-69 -25 c0 -10 -3 -8 -9 5 -12 27 -12 43 0 25 5 -8 9 -22 9 -30z m95 24
c3 -8 2 -12 -4 -9 -6 3 -10 10 -10 16 0 14 7 11 14 -7z m-174 -15 c0 -15 -18
-19 -23 -6 -3 8 1 14 9 14 8 0 14 -4 14 -8z m1180 6 c0 0 -19 -19 -41 -40 -28
-27 -38 -33 -30 -17 6 12 16 22 20 22 5 0 11 8 13 18 3 10 13 19 22 19 9 0 16
-1 16 -2z m-907 -34 c-5 -21 -33 -37 -33 -20 0 19 21 50 30 44 4 -3 6 -14 3
-24z m102 1 c-3 -3 -11 0 -18 7 -9 10 -8 11 6 5 10 -3 15 -9 12 -12z m-410 -2
c3 -5 13 -6 22 -3 12 5 14 3 8 -6 -5 -10 -2 -11 14 -6 12 3 21 2 21 -4 0 -5
-14 -8 -31 -6 -31 4 -31 4 -13 -17 11 -12 14 -18 7 -14 -19 10 -56 66 -44 66
5 0 12 -4 16 -10z m125 -20 c0 -6 4 -10 10 -10 5 0 7 7 4 15 -4 8 -2 15 4 15
13 0 23 -39 11 -46 -5 -3 -6 -10 -3 -16 4 -7 2 -8 -5 -4 -6 4 -9 12 -6 17 4 5
-1 9 -9 9 -9 0 -16 7 -16 15 0 14 -12 20 -33 16 -5 -1 -6 3 -2 9 7 12 45 -5
45 -20z m70 21 c0 -6 -4 -13 -10 -16 -5 -3 -10 1 -10 9 0 9 5 16 10 16 6 0 10
-4 10 -9z m226 -31 c8 0 14 -6 15 -12 0 -7 2 -21 4 -30 2 -10 -1 -18 -7 -18
-6 0 -8 7 -4 15 3 8 1 15 -5 15 -6 0 -7 4 -4 10 4 6 -1 7 -11 3 -11 -4 -13 -8
-6 -11 7 -2 12 -8 12 -13 0 -6 -6 -7 -12 -4 -7 4 -5 0 4 -8 10 -8 14 -17 10
-21 -4 -4 1 -12 11 -17 13 -8 15 -15 8 -27 -6 -10 -6 -23 0 -33 6 -12 3 -24
-12 -41 l-20 -23 17 28 c10 16 12 27 5 27 -6 0 -11 -4 -11 -9 0 -4 -8 -8 -17
-8 -35 0 -44 -3 -39 -12 4 -5 -4 -7 -16 -3 l-22 5 22 10 c12 6 22 14 22 20 0
6 5 5 13 -1 8 -7 18 -7 27 -2 18 11 20 32 5 42 -14 11 -25 10 -25 -3 0 -5 5
-7 10 -4 6 3 10 -1 10 -9 0 -23 -24 -20 -46 6 -15 19 -16 20 -1 9 20 -16 22
-9 5 18 -9 15 -16 17 -31 10 -12 -7 -22 -7 -31 0 -10 8 -16 8 -25 -3 -9 -10
-8 -16 4 -26 17 -14 21 -35 5 -25 -5 3 -10 0 -11 -7 0 -10 -2 -10 -6 0 -2 6
-10 9 -15 6 -7 -4 -8 -2 -4 5 4 6 12 9 17 6 5 -4 9 -2 9 4 0 5 -5 13 -11 17
-8 4 -8 9 0 17 8 8 6 16 -6 29 -19 21 -12 34 14 23 10 -5 21 -7 26 -7 7 2 11
-14 8 -32 -1 -5 6 -5 16 -1 10 4 26 8 35 9 9 0 14 4 12 8 -3 4 -1 8 3 8 5 0 9
9 10 20 2 20 1 20 -16 -1 -12 -15 -20 -19 -25 -11 -4 7 -1 12 9 12 9 0 14 4
11 8 -3 5 -18 8 -33 7 -20 -2 -21 -1 -5 2 13 2 26 11 29 20 5 12 7 12 15 1 7
-10 11 -10 21 5 7 9 13 13 15 7 2 -5 10 -10 18 -10z m-81 0 c-3 -5 -16 -10
-28 -9 -21 0 -21 1 -2 9 28 12 37 12 30 0z m-108 -15 c0 -8 -4 -12 -9 -9 -5 3
-6 10 -3 15 9 13 12 11 12 -6z m228 -103 c-3 -18 -10 -30 -15 -27 -6 4 -5 14
2 25 11 16 9 22 -7 35 -14 10 -15 14 -5 13 11 -2 16 8 20 37 l4 40 4 -45 c2
-24 1 -59 -3 -78z m-355 98 c0 -16 -38 -32 -46 -18 -4 6 -3 8 4 4 6 -3 17 0
24 8 16 18 18 19 18 6z m180 -2 c0 -4 -7 -8 -15 -8 -8 0 -15 4 -15 8 0 5 7 9
15 9 8 0 15 -4 15 -9z m-225 -38 c10 -11 16 -20 13 -20 -3 0 -13 9 -23 20 -10
11 -16 20 -13 20 3 0 13 -9 23 -20z m85 4 c0 -2 -7 -4 -15 -4 -8 0 -15 4 -15
10 0 5 7 7 15 4 8 -4 15 -8 15 -10z m60 -10 c0 -10 -6 -14 -14 -11 -7 3 -19 0
-25 -6 -12 -12 -26 -3 -17 12 4 5 15 8 26 6 11 -2 20 0 20 6 0 5 2 9 5 9 3 0
5 -7 5 -16z m20 -24 c-11 -7 -11 -11 -1 -24 14 -16 7 -36 -12 -35 -9 0 -9 2 1
6 6 2 12 9 12 15 0 6 -7 8 -14 5 -11 -4 -13 -1 -9 11 9 25 25 43 32 37 3 -3
-1 -10 -9 -15z m-37 -17 c-7 -2 -19 -2 -25 0 -7 3 -2 5 12 5 14 0 19 -2 13 -5z
m64 -59 c-3 -3 -12 -4 -19 -1 -8 3 -5 6 6 6 11 1 17 -2 13 -5z m58 -44 c-12
-5 -14 -9 -6 -9 8 -1 12 -4 9 -7 -4 -3 -18 1 -33 9 l-27 14 38 1 c30 0 34 -2
19 -8z m95 -15 c0 -12 -19 -12 -23 0 -4 9 -1 12 9 8 7 -3 14 -7 14 -8z"/>
<path d="M4291 6571 c7 -20 76 -42 88 -27 8 9 1 12 -25 13 -19 1 -42 7 -51 15
-14 11 -16 11 -12 -1z"/>
<path d="M4383 6464 c0 -16 13 -19 21 -5 3 5 0 11 -7 14 -8 3 -14 -1 -14 -9z"/>
<path d="M4415 6419 c-4 -6 -5 -12 -2 -15 2 -3 7 2 10 11 7 17 1 20 -8 4z"/>
<path d="M4536 6323 c-6 -14 -5 -15 5 -6 7 7 10 15 7 18 -3 3 -9 -2 -12 -12z"/>
<path d="M4027 6400 c-3 -11 0 -20 6 -20 7 0 5 -5 -3 -10 -13 -8 -12 -10 3
-10 9 0 17 5 17 11 0 5 6 7 13 4 6 -4 4 0 -5 8 -10 8 -15 16 -12 19 3 4 1 9
-4 12 -5 3 -12 -3 -15 -14z"/>
<path d="M3900 6401 c0 -5 5 -13 10 -16 6 -3 10 -2 10 4 0 5 -4 13 -10 16 -5
3 -10 2 -10 -4z"/>
<path d="M3857 6383 c-3 -5 0 -19 8 -29 15 -20 18 -11 6 20 -4 11 -10 15 -14
9z"/>
<path d="M3837 6333 c-5 -9 -1 -37 8 -61 4 -12 10 -7 23 19 15 30 15 35 2 41
-21 9 -28 9 -33 1z m26 -28 c-7 -21 -13 -19 -13 6 0 11 4 18 10 14 5 -3 7 -12
3 -20z"/>
<path d="M3761 6214 c0 -11 3 -14 6 -6 3 7 2 16 -1 19 -3 4 -6 -2 -5 -13z"/>
<path d="M3920 6206 c0 -9 5 -16 10 -16 6 0 10 4 10 9 0 6 -4 13 -10 16 -5 3
-10 -1 -10 -9z"/>
<path d="M4840 6349 c0 -5 5 -7 10 -4 6 3 10 8 10 11 0 2 -4 4 -10 4 -5 0 -10
-5 -10 -11z"/>
<path d="M3755 6091 c-6 -11 13 -26 22 -17 4 3 1 6 -6 6 -7 0 -9 5 -6 10 3 6
4 10 1 10 -3 0 -7 -4 -11 -9z"/>
<path d="M3646 6064 c-4 -9 -1 -23 5 -30 6 -8 8 -14 3 -14 -4 0 -3 -5 4 -12 7
-7 12 -25 12 -40 0 -15 4 -28 9 -28 5 0 7 10 4 23 -5 22 -5 22 10 2 9 -11 17
-15 17 -10 0 6 5 3 10 -5 7 -11 12 -12 21 -3 8 8 6 14 -9 22 -16 8 -19 18 -15
46 3 22 1 35 -7 35 -6 0 -8 5 -5 10 3 6 1 10 -5 10 -7 0 -9 -10 -6 -27 7 -31
-7 -63 -18 -44 -4 6 -2 11 3 11 6 0 11 7 11 16 0 8 -4 13 -9 10 -4 -3 -7 6 -5
19 3 28 -20 35 -30 9z"/>
<path d="M3814 5995 c3 -23 12 -26 13 -5 1 11 -2 20 -7 20 -4 0 -7 -7 -6 -15z"/>
<path d="M3842 6001 c2 -7 7 -12 11 -12 12 1 9 15 -3 20 -7 2 -11 -2 -8 -8z"/>
<path d="M4847 6104 c-10 -11 3 -24 24 -24 11 0 19 7 19 18 0 14 -2 15 -10 2
-8 -12 -12 -12 -18 -2 -5 7 -11 9 -15 6z"/>
<path d="M3850 6121 c0 -7 -5 -9 -12 -5 -7 5 -8 3 -3 -5 5 -9 10 -10 18 -2 6
6 8 14 4 18 -4 3 -7 1 -7 -6z"/>
<path d="M4905 6020 c3 -5 8 -10 11 -10 2 0 4 5 4 10 0 6 -5 10 -11 10 -5 0
-7 -4 -4 -10z"/>
<path d="M4815 5889 c-4 -6 -5 -12 -2 -15 2 -3 7 2 10 11 7 17 1 20 -8 4z"/>
<path d="M4950 5941 c0 -6 7 -14 15 -17 8 -4 15 -10 15 -16 0 -5 -4 -6 -10 -3
-5 3 -10 1 -10 -4 0 -14 17 -14 25 0 4 6 13 8 19 6 7 -3 13 1 13 8 0 7 -7 11
-14 8 -8 -3 -23 3 -33 12 -12 11 -20 13 -20 6z"/>
<path d="M3375 5899 c-4 -5 3 -8 14 -6 28 4 34 12 11 14 -11 1 -22 -2 -25 -8z"/>
<path d="M4861 5734 c-1 -5 5 -18 12 -28 12 -16 14 -16 25 11 10 23 10 25 -1
11 -12 -15 -14 -15 -24 0 -7 9 -12 12 -12 6z"/>
<path d="M3495 5770 c-3 -5 -2 -10 4 -10 5 0 13 5 16 10 3 6 2 10 -4 10 -5 0
-13 -4 -16 -10z"/>
<path d="M3355 5740 c-3 -5 -2 -10 4 -10 5 0 13 5 16 10 3 6 2 10 -4 10 -5 0
-13 -4 -16 -10z"/>
<path d="M3350 5709 c0 -5 5 -7 10 -4 6 3 10 8 10 11 0 2 -4 4 -10 4 -5 0 -10
-5 -10 -11z"/>
<path d="M4815 5500 c-8 -13 9 -20 24 -11 10 6 9 10 -3 14 -8 3 -18 2 -21 -3z"/>
<path d="M4480 5389 c0 -5 -4 -8 -9 -4 -5 3 -12 1 -16 -5 -3 -5 3 -10 14 -10
12 0 21 7 21 15 0 8 -2 15 -5 15 -3 0 -5 -5 -5 -11z"/>
<path d="M4560 5366 c0 -2 7 -9 15 -16 9 -7 15 -8 15 -2 0 5 -7 12 -15 16 -8
3 -15 4 -15 2z"/>
<path d="M4635 5270 c3 -5 8 -10 11 -10 2 0 4 5 4 10 0 6 -5 10 -11 10 -5 0
-7 -4 -4 -10z"/>
<path d="M4515 5140 c-3 -5 -1 -10 4 -10 6 0 11 5 11 10 0 6 -2 10 -4 10 -3 0
-8 -4 -11 -10z"/>
<path d="M4360 5051 c0 -6 4 -12 8 -15 5 -3 9 1 9 9 0 8 -4 15 -9 15 -4 0 -8
-4 -8 -9z"/>
<path d="M4370 5011 c0 -6 4 -13 10 -16 6 -3 7 1 4 9 -7 18 -14 21 -14 7z"/>
<path d="M3545 4970 c3 -5 8 -10 11 -10 2 0 4 5 4 10 0 6 -5 10 -11 10 -5 0
-7 -4 -4 -10z"/>
<path d="M3645 5588 c-45 -53 -70 -133 -60 -196 8 -54 20 -72 47 -72 59 0 161
-89 205 -178 25 -52 28 -67 28 -167 0 -160 3 -156 -347 -508 -350 -352 -350
-352 -518 -352 -96 0 -110 3 -162 29 -179 91 -256 323 -163 494 16 30 105 127
229 251 l203 202 -28 79 c-33 92 -53 226 -43 284 6 41 4 38 -221 -184 -125
-124 -260 -262 -300 -307 -233 -264 -265 -591 -86 -865 85 -131 222 -234 376
-285 66 -21 100 -26 195 -27 138 -1 194 11 320 71 l95 45 331 332 c321 321
332 334 377 421 78 155 102 296 73 444 -44 237 -215 433 -445 512 -30 11 -58
19 -62 19 -4 0 -24 -19 -44 -42z"/>
<path d="M11258 5613 c-31 -5 -78 -55 -78 -84 0 -76 87 -122 160 -84 103 53
39 186 -82 168z m85 -25 c30 -23 42 -108 15 -108 -6 0 -8 3 -5 7 4 3 1 13 -6
21 -9 13 -9 14 1 8 6 -4 12 -2 12 3 0 6 -12 11 -27 11 -22 0 -25 -2 -13 -10
14 -9 7 -14 -13 -11 -5 1 -5 -4 0 -11 4 -7 8 -17 8 -23 0 -5 9 -9 20 -8 13 2
10 -2 -9 -11 -32 -14 -90 -7 -110 14 -8 10 -6 10 12 1 27 -14 29 0 3 23 -15
13 -20 14 -24 4 -4 -8 -6 -7 -6 5 -1 15 5 19 27 16 4 -1 6 -5 5 -10 -2 -4 6
-13 17 -19 11 -6 18 -15 15 -21 -9 -14 5 -11 21 6 14 13 14 15 -2 15 -14 0
-15 2 -3 18 13 15 12 16 -3 3 -17 -12 -19 -12 -17 5 0 4 -4 10 -11 14 -6 4
-12 17 -13 28 -2 25 -12 29 -21 7 -3 -8 0 -15 6 -15 9 0 9 -3 0 -12 -18 -18
-27 -1 -13 28 11 24 36 29 36 7 0 -6 3 -15 7 -18 4 -4 5 4 2 19 -4 24 -2 26
34 26 21 0 46 -6 55 -12z m-3 -98 c0 -5 -2 -10 -4 -10 -3 0 -8 5 -11 10 -3 6
-1 10 4 10 6 0 11 -4 11 -10z"/>
<path d="M11300 5578 c0 -6 3 -8 7 -5 3 4 12 -1 19 -11 12 -15 13 -15 14 -1 0
9 -7 20 -16 23 -22 8 -24 8 -24 -6z"/>
<path d="M12350 5110 l0 -500 95 0 95 0 0 118 0 118 33 32 32 31 104 -145 c58
-80 110 -148 116 -150 6 -3 57 -3 113 -2 l101 3 -61 85 c-34 47 -102 140 -151
208 l-89 123 59 66 c32 37 87 98 122 135 35 38 61 72 57 76 -4 4 -14 -2 -22
-12 -11 -16 -14 -17 -14 -4 0 12 -11 16 -46 16 -39 1 -44 -1 -31 -11 9 -7 17
-30 19 -52 2 -34 0 -40 -17 -40 -13 0 -19 -6 -17 -16 1 -9 -6 -22 -15 -30 -15
-11 -16 -11 -5 1 17 20 15 30 -8 30 -16 0 -19 -6 -16 -30 4 -34 -12 -53 -34
-40 -10 6 -11 12 -3 22 15 20 24 50 13 43 -6 -3 -10 -13 -10 -21 0 -8 -4 -13
-9 -9 -6 3 -8 -9 -6 -27 3 -21 1 -28 -4 -19 -17 27 -36 6 -32 -38 2 -29 -1
-41 -8 -37 -6 4 -11 2 -11 -3 0 -6 5 -11 11 -11 8 0 7 -6 -2 -17 -10 -11 -10
-14 -1 -9 8 5 12 0 12 -13 0 -12 4 -21 9 -21 5 0 18 -3 28 -6 15 -5 15 -4 3 5
-8 6 -10 11 -4 11 16 0 46 -48 39 -61 -4 -5 -3 -9 2 -8 22 4 25 -2 7 -17 -18
-15 -18 -15 3 -5 26 13 31 6 28 -35 -2 -21 2 -31 11 -31 10 0 11 4 4 11 -5 5
-10 17 -10 26 0 10 6 7 20 -10 11 -15 18 -37 16 -58 -1 -18 4 -37 11 -43 7 -7
13 -19 13 -29 0 -10 6 -23 14 -29 12 -10 17 -8 25 7 6 11 7 23 3 27 -4 5 -1 5
6 1 6 -4 12 -14 12 -22 0 -8 4 -14 9 -14 5 0 17 -12 27 -27 15 -24 15 -26 1
-14 -11 9 -17 10 -17 2 0 -7 -28 -11 -82 -11 l-83 1 24 19 c13 11 19 20 13 20
-5 0 -15 -7 -23 -16 -12 -14 -14 -14 -25 1 -13 18 -8 44 10 58 7 6 4 7 -6 3
-10 -3 -20 -1 -23 4 -4 6 -12 10 -18 10 -8 -1 -7 -5 3 -13 14 -11 25 -37 16
-37 -2 0 -13 15 -24 32 -16 24 -18 35 -9 41 8 5 5 7 -7 5 -10 -2 -21 3 -23 10
-3 7 1 10 10 6 8 -3 18 -1 22 5 4 7 0 8 -11 4 -13 -5 -15 -3 -9 8 7 12 6 12
-7 1 -13 -10 -18 -10 -24 -1 -4 8 -3 9 4 5 8 -5 12 1 12 15 0 17 -3 19 -14 10
-11 -9 -18 -6 -36 19 -12 16 -17 30 -11 30 6 0 11 -4 11 -10 0 -5 5 -10 11
-10 5 0 8 4 5 9 -3 5 1 8 10 7 21 -1 50 39 34 49 -6 3 -10 3 -9 -2 4 -24 -5
-31 -41 -35 -41 -4 -62 14 -41 35 7 7 7 16 0 29 -11 21 -35 24 -43 6 -3 -7 -4
0 -1 15 l6 28 -23 -20 c-12 -12 -25 -21 -30 -21 -4 0 -8 -5 -8 -11 0 -5 5 -7
11 -3 8 4 9 -1 4 -16 -6 -19 -4 -22 9 -17 15 6 15 4 -1 -19 -12 -19 -18 -22
-24 -12 -6 8 -9 9 -9 2 0 -7 -11 -15 -25 -18 -25 -6 -36 -36 -12 -36 7 0 8 -3
2 -8 -5 -4 -11 -14 -11 -22 -1 -8 -3 -22 -5 -30 -2 -8 1 -14 7 -13 7 1 16 -10
20 -25 7 -21 10 -10 14 53 6 75 6 73 7 -35 0 -63 -2 -99 -5 -80 -4 29 -6 32
-12 15 l-9 -20 0 20 c-1 11 -6 27 -12 35 -7 11 -9 2 -6 -32 l4 -48 -42 0 -42
0 -1 61 c0 40 -5 65 -14 70 -10 7 -10 9 3 9 9 0 16 7 16 15 0 8 -4 15 -9 15
-5 0 -6 6 -1 13 4 6 6 47 5 90 -2 61 1 82 14 94 14 14 14 18 2 27 -11 9 -14
36 -14 121 1 61 5 116 10 124 6 9 5 12 0 8 -6 -3 -10 26 -11 71 -2 105 -2 104
-12 98 -5 -4 -4 7 2 24 9 24 9 35 -2 53 -8 12 -10 19 -6 15 5 -5 13 2 20 15
10 20 8 23 -20 28 -18 4 5 7 57 8 l87 1 3 -274 c3 -239 1 -274 -12 -271 -16 3
-21 -40 -7 -62 5 -7 5 -19 1 -25 -4 -7 2 -5 13 5 14 12 23 14 26 7 3 -6 4 -5
3 2 -1 7 -11 13 -22 13 -17 0 -20 6 -15 35 0 6 8 10 16 10 8 0 15 5 15 11 0 7
11 8 31 4 22 -5 34 -3 40 6 7 12 9 12 9 1 0 -8 10 -22 22 -31 16 -14 18 -20 8
-26 -9 -6 -11 -4 -5 5 5 9 4 11 -3 6 -24 -15 -11 -31 24 -32 25 0 31 2 20 8
-10 6 -15 18 -12 32 4 20 1 23 -16 18 -16 -4 -19 -2 -13 8 5 9 4 11 -3 6 -7
-4 -12 -3 -12 2 0 12 47 25 60 17 6 -4 10 -1 10 5 0 15 -33 26 -38 12 -2 -7
-15 -12 -28 -12 -14 0 -23 4 -19 10 3 5 11 8 18 6 7 -1 9 -1 5 1 -5 3 -8 11
-8 19 0 9 5 12 10 9 11 -7 14 8 3 19 -4 4 -15 -3 -25 -16 -10 -13 -18 -18 -18
-12 0 15 49 59 57 51 3 -4 1 -7 -7 -7 -10 0 -10 -3 0 -15 7 -8 19 -15 27 -15
9 0 13 6 9 15 -3 8 -1 15 3 15 5 0 7 10 3 22 -3 15 -2 19 7 14 8 -5 10 0 7 18
-7 36 19 54 35 24 7 -13 12 -24 11 -25 -1 -2 1 -3 5 -3 4 0 8 6 9 15 1 8 -1
13 -6 10 -4 -3 -10 2 -14 10 -7 18 15 20 32 3 9 -9 12 -8 12 8 0 13 -7 19 -25
20 -14 1 -25 -3 -25 -9 0 -6 -3 -7 -6 -4 -12 12 16 35 35 30 10 -3 22 0 26 7
5 8 11 8 21 -1 8 -6 17 -9 21 -5 3 3 1 6 -5 6 -7 0 -12 7 -12 16 0 13 13 15
81 13 50 -1 84 2 92 10 8 8 -17 11 -101 11 l-112 0 -117 -139 c-65 -77 -121
-140 -125 -140 -5 -1 -8 123 -8 274 l0 275 -95 0 -95 0 0 -500z m17 353 c-2
-16 -4 -3 -4 27 0 30 2 43 4 28 2 -16 2 -40 0 -55z m0 -80 c-3 -10 -5 -4 -5
12 0 17 2 24 5 18 2 -7 2 -21 0 -30z m0 -45 c-3 -8 -6 -5 -6 6 -1 11 2 17 5
13 3 -3 4 -12 1 -19z m0 -65 c-3 -10 -5 -2 -5 17 0 19 2 27 5 18 2 -10 2 -26
0 -35z m440 40 c-9 -2 -15 -8 -13 -12 3 -4 -1 -8 -9 -8 -11 0 -12 4 -4 14 6 7
19 12 28 12 13 -1 13 -2 -2 -6z m123 -48 c0 -1 -10 -10 -22 -21 -14 -12 -18
-13 -10 -3 6 9 10 18 7 21 -3 2 2 5 10 5 8 0 15 -1 15 -2z m-220 -49 c0 -2 -8
-10 -17 -17 -16 -13 -17 -12 -4 4 13 16 21 21 21 13z m-343 -68 c-2 -13 -4 -5
-4 17 -1 22 1 32 4 23 2 -10 2 -28 0 -40z m398 -68 c-21 -24 -32 -25 -32 -5 0
8 3 12 7 10 3 -2 12 0 20 6 23 14 25 11 5 -11z m-398 -288 c-1 -53 -3 -7 -3
103 0 110 2 154 3 97 2 -57 2 -147 0 -200z m226 281 c-4 -11 -3 -14 5 -9 7 4
12 2 12 -3 0 -13 -3 -13 -24 -5 -13 5 -14 9 -5 20 15 19 20 18 12 -3z m155
-88 c-3 -3 -9 2 -12 12 -6 14 -5 15 5 6 7 -7 10 -15 7 -18z m-121 -54 c1 -14
-3 -18 -13 -14 -11 4 -12 9 -3 19 15 18 14 18 16 -5z m313 -204 c0 -5 -6 -5
-12 -1 -9 5 -9 2 1 -9 9 -12 10 -17 2 -17 -7 0 -9 -5 -5 -12 5 -7 3 -8 -5 -3
-8 4 -11 18 -7 36 4 20 2 28 -7 26 -6 -1 -11 4 -9 12 1 7 -1 18 -5 25 -4 6 4
-2 19 -19 15 -16 28 -34 28 -38z m-435 43 c3 -5 1 -10 -4 -10 -6 0 -11 5 -11
10 0 6 2 10 4 10 3 0 8 -4 11 -10z m-138 -112 c-3 -7 -5 -2 -5 12 0 14 2 19 5
13 2 -7 2 -19 0 -25z"/>
<path d="M5390 5100 l0 -490 330 0 330 0 0 90 0 90 -225 0 -225 0 0 115 0 115
197 2 196 3 4 88 3 87 -200 0 -200 0 0 105 0 105 220 0 220 0 0 90 0 90 -325
0 -325 0 0 -490z"/>
<path d="M10460 5098 l0 -488 305 0 305 0 0 88 0 87 -200 -3 -200 -3 -2 402
-3 401 -102 2 -103 1 0 -487z m190 77 c0 -294 -3 -395 -12 -395 -6 0 -9 -3 -6
-6 4 -3 101 -5 217 -4 l211 1 -2 -58 -2 -58 -3 53 -4 53 -192 -3 c-173 -3
-192 -5 -195 -20 -2 -13 3 -18 17 -18 12 0 21 -6 21 -12 0 -8 3 -9 8 -3 4 6
21 11 37 11 52 3 55 4 55 15 0 6 -9 8 -22 4 -18 -5 -20 -4 -8 4 18 13 60 14
60 2 0 -5 14 -11 31 -15 24 -4 35 -2 45 11 13 17 14 17 8 0 -5 -14 -2 -18 12
-15 11 2 24 10 31 18 10 13 11 12 10 -4 -1 -11 7 -22 21 -27 16 -6 22 -5 22 5
0 21 -12 27 -29 13 -14 -10 -14 -10 -3 5 7 9 22 15 34 13 24 -5 37 -15 19 -15
-9 0 -9 -5 0 -21 9 -17 8 -23 -2 -30 -7 -4 -19 -3 -26 2 -15 13 -33 3 -33 -17
0 -8 -5 -14 -11 -14 -5 0 -8 -4 -5 -9 4 -5 -59 -10 -150 -10 -134 0 -155 2
-150 14 3 8 1 15 -4 15 -6 0 -10 -6 -10 -14 0 -10 -20 -14 -86 -15 -74 -1 -85
0 -75 13 9 11 9 15 0 18 -9 3 -6 11 9 26 20 20 20 27 -1 23 -5 -1 -7 14 -4 34
3 19 1 35 -4 35 -5 0 -4 12 1 26 6 14 7 31 3 37 -5 8 -2 8 8 0 13 -10 16 -10
16 2 0 8 -6 15 -14 15 -7 0 -13 5 -13 11 0 5 6 7 13 3 10 -6 10 -4 0 7 -7 7
-13 19 -13 27 0 17 25 43 34 35 3 -4 6 2 6 11 0 10 -9 20 -20 23 -11 3 -20 9
-20 14 0 5 7 6 15 3 8 -4 15 -1 15 5 0 6 -7 11 -15 11 -11 0 -15 10 -14 33 1
20 3 24 6 11 4 -21 73 -62 73 -43 0 5 4 8 9 4 6 -3 7 6 2 22 -4 16 -6 34 -4
41 3 8 -1 10 -14 5 -16 -6 -17 -5 -3 12 11 14 11 17 1 11 -8 -5 -16 -4 -21 4
-5 8 -9 7 -13 -5 -5 -10 -3 -14 5 -9 8 5 9 -2 4 -27 -6 -32 -6 -32 10 -14 11
15 14 16 11 4 -3 -9 0 -22 6 -29 10 -10 8 -12 -6 -6 -10 3 -23 6 -29 6 -6 0
-8 11 -6 25 5 23 -2 30 -24 26 -5 0 -8 6 -8 14 0 8 3 14 8 14 18 -3 22 2 10
15 -7 8 -17 11 -23 8 -5 -2 -4 1 3 9 15 16 16 33 0 23 -7 -4 -8 -3 -4 4 4 7
18 12 32 12 17 0 23 -4 18 -12 -4 -7 -3 -8 4 -4 7 4 12 2 12 -5 0 -7 3 -9 6
-6 4 4 3 12 -3 19 -16 23 -9 52 17 65 14 7 21 13 15 14 -5 0 1 5 15 10 25 9
25 9 -3 5 -15 -2 -30 1 -33 5 -3 5 -11 9 -17 9 -8 0 -8 -3 1 -9 8 -4 12 -12
11 -17 -6 -17 -54 -60 -63 -56 -4 2 -2 8 5 13 12 7 12 9 0 9 -10 0 -7 8 9 25
13 14 18 25 12 25 -7 0 -13 10 -13 23 -1 16 -2 18 -6 5 -2 -10 -9 -18 -14 -18
-6 0 -7 5 -4 11 4 6 7 27 8 47 0 20 2 28 5 18 3 -17 6 -14 18 12 9 22 18 30
28 26 9 -3 16 -13 16 -21 0 -9 -6 -13 -14 -10 -9 4 -21 -5 -31 -19 -16 -25
-16 -25 5 -14 11 6 18 15 15 20 -4 6 3 6 18 1 22 -9 24 -7 20 12 -3 12 -12 27
-20 33 -16 13 -56 7 -47 -7 3 -5 0 -9 -5 -9 -6 0 -11 12 -11 26 0 17 4 23 13
18 10 -6 10 -4 0 7 -15 16 -17 89 -3 89 6 0 11 -8 11 -17 1 -17 2 -17 6 0 5
20 23 23 24 5 0 -10 2 -10 6 0 2 6 9 9 15 6 5 -3 12 3 15 15 5 21 43 31 43 11
0 -5 -7 -7 -15 -4 -8 4 -15 2 -15 -4 0 -5 14 -12 30 -14 26 -4 30 -1 30 18 0
22 -4 23 -87 27 l-88 3 93 2 92 2 0 -395z m-90 360 c0 -8 -8 -11 -20 -8 -30 8
-32 18 -4 19 14 1 24 -4 24 -11z m-60 -269 c0 -3 -4 -8 -10 -11 -5 -3 -10 -1
-10 4 0 6 5 11 10 11 6 0 10 -2 10 -4z m200 -528 c0 -4 -7 -8 -15 -8 -8 0 -15
4 -15 8 0 5 7 9 15 9 8 0 15 -4 15 -9z m184 3 c4 -5 -3 -7 -14 -4 -23 6 -26
13 -6 13 8 0 17 -4 20 -9z m149 -98 c-6 -15 -63 -18 -63 -4 0 5 12 8 28 6 26
-4 26 -4 5 7 -33 16 -28 28 6 15 17 -6 27 -16 24 -24z"/>
<path d="M10614 5484 c-1 -13 2 -24 8 -24 5 0 6 5 3 10 -3 6 -1 10 4 10 15 0
14 17 -1 23 -8 3 -14 -5 -14 -19z"/>
<path d="M10591 5474 c0 -11 3 -14 6 -6 3 7 2 16 -1 19 -3 4 -6 -2 -5 -13z"/>
<path d="M10490 5476 c0 -2 7 -7 16 -10 8 -3 12 -2 9 4 -6 10 -25 14 -25 6z"/>
<path d="M10605 5441 c-3 -6 1 -13 9 -18 8 -4 16 -19 19 -33 2 -14 5 -6 5 20
0 25 -2 39 -5 33 -2 -7 -9 -13 -14 -13 -6 0 -7 5 -4 10 3 6 4 10 1 10 -3 0 -7
-4 -11 -9z"/>
<path d="M10550 5419 c13 -23 22 -25 13 -2 -5 12 -3 14 8 8 8 -5 11 -4 6 0 -4
5 -14 10 -22 11 -12 2 -12 -2 -5 -17z"/>
<path d="M10606 5334 c5 -19 4 -25 -5 -20 -6 4 -11 2 -11 -3 0 -6 6 -11 13
-11 8 0 7 -4 -3 -11 -13 -9 -13 -10 0 -6 8 2 14 10 13 16 -4 15 14 14 19 -1 3
-7 5 4 6 25 1 31 -2 37 -18 37 -17 0 -19 -4 -14 -26z"/>
<path d="M10531 5323 c0 -11 3 -13 6 -5 2 6 10 9 15 6 7 -4 8 -2 4 4 -11 18
-26 14 -25 -5z"/>
<path d="M10569 5318 c-5 -18 -6 -38 -1 -34 7 8 12 36 6 36 -2 0 -4 -1 -5 -2z"/>
<path d="M10614 5255 c-12 -12 -24 -30 -27 -39 -4 -9 -11 -15 -16 -14 -10 3
-11 -2 -10 -29 0 -14 2 -13 9 5 5 12 17 22 25 22 9 0 14 4 10 9 -3 5 3 16 12
23 10 7 19 21 21 31 4 21 2 21 -24 -8z"/>
<path d="M10500 5229 c0 -5 5 -7 10 -4 6 3 10 8 10 11 0 2 -4 4 -10 4 -5 0
-10 -5 -10 -11z"/>
<path d="M10628 5193 c-3 -35 -4 -36 -20 -19 -10 10 -18 13 -18 8 0 -5 7 -15
15 -22 9 -7 14 -19 11 -27 -3 -8 -2 -12 3 -8 5 3 12 -1 14 -7 3 -7 6 15 6 50
1 68 -6 84 -11 25z"/>
<path d="M10495 5151 c-3 -5 -1 -12 5 -16 5 -3 10 1 10 9 0 18 -6 21 -15 7z"/>
<path d="M10577 5146 c-4 -10 -1 -13 8 -9 8 3 12 9 9 14 -7 12 -11 11 -17 -5z"/>
<path d="M10580 5120 c-9 -6 -10 -10 -3 -10 6 0 15 5 18 10 8 12 4 12 -15 0z"/>
<path d="M10614 5088 c-4 -6 -3 -8 4 -4 6 3 13 -2 15 -11 4 -14 5 -13 6 5 1
23 -13 30 -25 10z"/>
<path d="M10583 5065 c0 -17 24 -28 32 -15 3 5 -3 13 -13 19 -14 7 -19 6 -19
-4z"/>
<path d="M10630 5025 c0 -8 -3 -14 -7 -13 -15 3 -63 -22 -63 -32 0 -5 5 -10
11 -10 5 0 7 5 4 10 -3 6 0 10 7 11 7 0 20 2 29 4 12 2 16 -6 17 -33 2 -61 12
-48 12 16 0 34 -2 62 -5 62 -3 0 -5 -7 -5 -15z"/>
<path d="M10601 4964 c0 -11 3 -14 6 -6 3 7 2 16 -1 19 -3 4 -6 -2 -5 -13z"/>
<path d="M10562 4955 c4 -4 -1 -15 -11 -25 -19 -15 -18 -16 15 -17 43 -1 49
-6 34 -30 -11 -17 -11 -17 -6 0 4 12 2 17 -6 14 -7 -2 -12 -14 -11 -26 2 -12
0 -20 -5 -18 -8 6 -26 -13 -29 -31 -2 -7 9 -12 28 -12 21 0 28 -4 23 -12 -5
-9 -2 -9 9 1 18 14 22 22 10 20 -24 -4 -53 2 -53 11 0 6 8 10 18 8 10 -2 16 2
14 11 -2 8 3 11 13 8 11 -5 15 1 15 24 0 23 -5 32 -20 36 -11 3 -19 12 -18 21
2 8 -4 17 -12 20 -8 3 -12 1 -8 -3z"/>
<path d="M10555 4900 c-3 -5 -1 -10 4 -10 6 0 11 5 11 10 0 6 -2 10 -4 10 -3
0 -8 -4 -11 -10z"/>
<path d="M10630 4853 c-3 -34 -1 -58 3 -54 5 4 7 32 5 62 l-3 54 -5 -62z"/>
<path d="M10509 4887 c7 -7 14 -8 21 -1 6 6 2 10 -12 11 -16 2 -18 -1 -9 -10z"/>
<path d="M10543 4873 c-15 -5 -17 -23 -4 -23 5 0 11 7 15 15 3 8 4 15 3 14 -1
0 -8 -3 -14 -6z"/>
<path d="M10535 4780 c3 -5 11 -10 16 -10 6 0 7 5 4 10 -3 6 -11 10 -16 10 -6
0 -7 -4 -4 -10z"/>
<path d="M10499 4778 c0 -2 -2 -14 -5 -28 -3 -17 -1 -21 5 -11 5 7 15 10 22 7
8 -4 6 -1 -3 7 -10 8 -15 17 -11 20 3 4 3 7 0 7 -4 0 -7 -1 -8 -2z"/>
<path d="M10617 4754 c14 -22 31 -36 19 -15 -4 5 -2 11 4 13 5 1 -2 8 -15 14
-23 11 -24 11 -8 -12z"/>
<path d="M10575 4740 c3 -5 8 -10 11 -10 2 0 4 5 4 10 0 6 -5 10 -11 10 -5 0
-7 -4 -4 -10z"/>
<path d="M10565 4699 c-4 -6 -5 -12 -2 -15 2 -3 7 2 10 11 7 17 1 20 -8 4z"/>
<path d="M10801 4694 c0 -11 3 -14 6 -6 3 7 2 16 -1 19 -3 4 -6 -2 -5 -13z"/>
<path d="M10900 4699 c0 -5 5 -7 10 -4 6 3 10 8 10 11 0 2 -4 4 -10 4 -5 0
-10 -5 -10 -11z"/>
<path d="M10515 4690 c-3 -5 1 -10 10 -10 9 0 13 5 10 10 -3 6 -8 10 -10 10
-2 0 -7 -4 -10 -10z"/>
<path d="M10623 4683 c0 -9 4 -10 14 -2 7 6 13 12 13 14 0 1 -6 2 -13 2 -8 0
-14 -6 -14 -14z"/>
<path d="M10725 4692 c-18 -13 -15 -31 6 -43 13 -6 19 -7 15 -1 -3 6 0 13 6
15 8 3 6 6 -4 6 -21 1 -24 17 -5 24 6 3 8 6 2 6 -5 0 -14 -3 -20 -7z"/>
<path d="M10766 4692 c-3 -5 1 -9 9 -9 8 0 15 4 15 9 0 4 -4 8 -9 8 -6 0 -12
-4 -15 -8z"/>
<path d="M10930 4690 c-8 -5 -12 -12 -9 -15 4 -3 12 1 19 10 14 17 11 19 -10
5z"/>
<path d="M10582 4678 c2 -7 -3 -12 -9 -10 -7 1 -13 -2 -13 -8 0 -14 16 -12 29
4 8 10 9 16 1 21 -6 4 -9 1 -8 -7z"/>
<path d="M10820 4674 c0 -9 -5 -12 -11 -8 -7 4 -10 1 -7 -6 2 -7 15 -15 28
-17 19 -3 22 -1 13 8 -6 6 -9 18 -6 25 3 8 0 14 -6 14 -6 0 -11 -7 -11 -16z"/>
<path d="M10876 4664 c-20 -20 -21 -19 17 -20 17 -1 24 1 14 3 -11 3 -16 11
-13 19 7 18 1 18 -18 -2z"/>
<path d="M10506 4658 c3 -5 10 -6 15 -3 13 9 11 12 -6 12 -8 0 -12 -4 -9 -9z"/>
<path d="M10767 4656 c-4 -10 -1 -13 9 -9 7 3 14 9 14 14 0 14 -17 10 -23 -5z"/>
<path d="M12436 5565 c4 -8 8 -15 10 -15 2 0 4 7 4 15 0 8 -4 15 -10 15 -5 0
-7 -7 -4 -15z"/>
<path d="M12488 5573 c6 -2 12 -9 12 -14 0 -6 -4 -8 -8 -5 -5 3 -8 -13 -8 -35
1 -24 6 -39 14 -39 6 0 12 -4 12 -10 0 -5 -8 -6 -17 -3 -15 6 -16 4 -5 -9 7
-8 10 -22 7 -30 -4 -9 0 -15 10 -15 12 0 15 15 15 84 0 80 -1 83 -22 82 -13 0
-17 -3 -10 -6z m19 -75 c-3 -8 -6 -5 -6 6 -1 11 2 17 5 13 3 -3 4 -12 1 -19z"/>
<path d="M12440 5511 c5 -11 15 -23 21 -27 6 -3 3 5 -6 20 -20 30 -30 35 -15
7z"/>
<path d="M9148 5430 l3 -90 -55 0 -56 0 0 -85 0 -85 55 0 55 0 0 -202 c0 -176
3 -208 19 -243 41 -88 113 -125 246 -125 118 0 115 -2 115 92 l0 81 -48 -7
c-51 -7 -111 6 -124 26 -4 7 -8 95 -8 196 l0 182 90 0 90 0 0 85 0 85 -90 0
-90 0 0 90 0 90 -102 0 -103 0 3 -90z"/>
<path d="M12423 5466 c1 -11 9 -21 17 -23 10 -3 11 -2 4 4 -6 4 -14 15 -17 23
-5 11 -6 9 -4 -4z"/>
<path d="M12415 5389 c-11 -16 -1 -19 13 -3 7 8 8 14 3 14 -5 0 -13 -5 -16
-11z"/>
<path d="M12480 5375 c0 -18 4 -23 15 -19 11 4 15 0 15 -16 0 -18 -3 -20 -13
-11 -21 17 -20 -49 1 -74 15 -17 15 -18 1 -7 -15 11 -17 9 -17 -25 0 -21 5
-41 11 -45 9 -6 9 -8 0 -8 -7 0 -13 -5 -13 -11 0 -5 4 -8 9 -5 13 8 19 -26 10
-52 -5 -12 -17 -22 -28 -22 -11 0 -23 -4 -26 -10 -4 -6 1 -7 11 -3 12 4 15 3
10 -6 -5 -8 2 -11 23 -9 l30 2 0 175 c0 112 -4 170 -9 161 -7 -10 -10 -11 -10
-2 0 6 -4 12 -10 12 -5 0 -10 -11 -10 -25z"/>
<path d="M6461 5338 c-19 -7 -51 -28 -73 -48 l-38 -37 0 44 0 43 -95 0 -95 0
0 -365 0 -365 99 0 100 0 3 238 c3 209 5 241 21 265 56 86 199 90 242 7 12
-24 15 -74 15 -270 l0 -240 100 0 100 0 0 258 c0 298 -7 339 -68 400 -56 56
-104 75 -197 78 -44 2 -95 -2 -114 -8z"/>
<path d="M7188 5337 c-105 -40 -166 -97 -216 -204 -24 -52 -27 -69 -27 -163 0
-93 3 -112 27 -162 53 -114 150 -188 273 -208 72 -12 161 1 219 30 79 41 151
130 171 210 l6 25 -99 0 -100 0 -21 -32 c-31 -47 -73 -66 -138 -61 -95 8 -143
75 -143 201 0 127 61 207 159 207 55 0 101 -26 127 -69 l18 -31 98 0 c72 0 98
3 98 13 0 29 -52 120 -92 160 -67 67 -126 91 -233 94 -58 2 -103 -2 -127 -10z"/>
<path d="M8817 5336 c-20 -8 -53 -26 -72 -40 l-35 -27 0 30 0 31 -100 0 -100
0 0 -360 0 -360 99 0 100 0 3 229 c3 252 4 255 71 305 32 24 133 34 166 17 21
-12 21 -11 21 89 l0 100 -57 0 c-32 -1 -75 -7 -96 -14z"/>
<path d="M9827 5333 c-88 -33 -159 -109 -172 -185 l-7 -38 89 0 c87 0 90 1
111 30 44 59 149 64 204 9 24 -23 29 -36 26 -66 l-3 -38 -135 -5 c-74 -3 -154
-12 -177 -19 -85 -28 -152 -111 -153 -190 -1 -129 106 -229 251 -234 90 -3
132 8 184 48 l45 35 0 -35 0 -35 96 0 95 0 -3 273 c-3 257 -4 274 -25 312 -27
51 -75 96 -133 126 -62 31 -222 38 -293 12z m253 -439 c0 -90 -58 -144 -153
-144 -51 0 -62 4 -88 29 -18 19 -29 40 -29 58 1 66 50 87 218 92 l52 1 0 -36z"/>
<path d="M11825 5327 c-28 -13 -63 -38 -77 -56 -15 -17 -29 -31 -31 -31 -2 0
-2 23 1 50 l5 50 -93 0 c-80 0 -91 -2 -86 -16 3 -9 6 -173 6 -365 l0 -349 89
0 90 0 3 239 c3 224 4 241 24 267 36 49 66 65 121 66 59 0 105 -22 125 -61 9
-19 14 -92 16 -268 l3 -243 95 0 94 0 0 258 c0 279 -6 324 -53 385 -66 87
-230 123 -332 74z m145 4 c0 -4 -11 -6 -25 -3 -20 3 -25 1 -22 -14 4 -30 16
-44 32 -37 8 3 15 9 15 14 0 4 -7 6 -15 3 -8 -4 -15 -1 -15 5 0 17 57 13 64
-4 3 -8 -4 -24 -16 -35 -12 -11 -18 -23 -15 -27 4 -3 7 -1 7 5 0 7 7 12 15 12
8 0 15 7 15 16 0 8 4 13 10 9 5 -3 18 3 28 13 19 19 42 19 42 0 0 -6 -8 -7
-17 -4 -16 5 -16 4 1 -8 10 -9 15 -20 10 -27 -4 -8 -3 -10 4 -5 7 4 12 14 12
22 0 19 14 18 34 -5 16 -17 16 -19 0 -25 -12 -4 -15 -2 -11 9 4 8 3 17 -2 19
-15 10 -8 -29 10 -53 10 -13 16 -27 13 -32 -3 -5 2 -9 11 -9 11 0 15 5 11 15
-18 45 -19 50 -6 39 16 -16 15 -94 -2 -94 -5 0 -6 -11 -4 -25 3 -15 0 -25 -7
-25 -9 0 -9 -2 0 -8 8 -5 11 -69 11 -225 l0 -217 -64 0 -64 0 0 224 c0 238 -4
262 -48 310 l-27 29 33 -23 c17 -13 32 -29 32 -34 0 -20 34 -32 70 -25 l35 6
-37 2 c-21 0 -38 6 -38 12 0 5 5 7 11 3 8 -4 8 0 0 15 -7 11 -14 21 -17 21 -3
0 -3 -4 0 -8 2 -4 1 -14 -5 -22 -7 -13 -9 -12 -9 3 0 9 -5 17 -11 17 -5 0 -7
5 -3 12 5 7 3 8 -6 3 -10 -6 -12 -4 -7 9 5 13 3 17 -6 13 -8 -3 -20 -1 -27 3
-8 5 -18 6 -23 3 -5 -3 -34 -5 -66 -6 -57 -1 -86 7 -77 22 3 4 -1 8 -9 8 -8 0
-15 -4 -15 -9 0 -4 4 -8 9 -8 15 0 20 -28 6 -34 -9 -3 -12 0 -9 8 3 8 0 17 -6
21 -7 4 -14 -2 -17 -14 -3 -11 -9 -19 -13 -16 -5 3 -11 1 -15 -4 -3 -6 -11 -9
-18 -7 -7 1 -9 1 -4 -1 4 -3 7 -14 7 -24 0 -11 -4 -18 -8 -15 -4 2 -14 1 -22
-5 -10 -6 -11 -9 -2 -9 6 0 12 -4 12 -10 0 -5 -6 -7 -13 -4 -10 3 -13 -5 -10
-33 1 -21 -3 -40 -10 -45 -9 -6 -9 -8 1 -8 8 0 12 -17 12 -51 0 -37 -3 -48
-12 -43 -10 6 -10 5 -1 -8 8 -8 12 -40 12 -74 -1 -91 0 -106 11 -99 6 3 10 1
10 -4 0 -6 -5 -11 -12 -11 -6 0 -8 -3 -5 -7 4 -3 -1 -15 -10 -26 -11 -12 -12
-17 -4 -12 11 6 13 3 9 -13 -4 -14 -1 -22 11 -25 9 -3 -17 -5 -56 -6 l-73 -1
0 345 0 345 23 -1 c16 -1 18 -2 5 -6 -16 -4 -18 -30 -18 -339 l0 -334 28 1
c15 0 21 3 15 6 -7 2 -13 16 -13 29 0 18 4 23 13 18 13 -9 -11 26 -28 38 -10
7 7 12 30 9 6 -1 3 4 -6 11 -9 7 -14 19 -11 26 2 7 -2 20 -10 30 -12 15 -11
16 4 4 16 -13 17 -11 13 17 -2 17 1 33 6 36 5 4 9 1 9 -4 0 -6 5 -11 12 -11 6
0 8 3 5 7 -4 3 -2 12 4 19 9 11 4 11 -23 4 -18 -6 -34 -10 -34 -10 -1 0 0 9 3
20 3 11 12 20 20 20 8 0 11 -5 7 -12 -4 -7 -3 -8 5 -4 6 4 8 12 5 18 -4 6 1
17 11 25 11 7 15 13 11 13 -4 0 -4 5 0 12 5 8 10 6 16 -8 8 -18 8 -18 5 1 -1
11 -6 18 -11 17 -5 -2 -13 3 -18 12 -10 18 -28 21 -28 5 0 -5 6 -7 13 -4 6 4
3 -1 -7 -9 -17 -14 -18 -16 -3 -16 24 0 21 -13 -5 -29 -18 -10 -20 -10 -11 0
10 10 9 17 -5 33 -9 11 -11 16 -4 12 6 -4 12 -2 12 3 0 6 -4 11 -9 11 -10 0
-10 65 0 75 4 3 5 29 3 58 -1 29 0 44 2 35 3 -10 10 -18 16 -18 6 0 6 -6 -2
-15 -18 -22 -3 -18 23 6 16 15 18 19 5 14 -12 -5 -20 -1 -25 11 -3 11 -11 22
-15 25 -12 8 -18 60 -6 53 5 -3 7 -13 6 -21 -2 -9 3 -17 10 -19 7 -1 8 0 2 3
-6 3 -6 11 1 25 9 16 8 19 -2 13 -9 -6 -11 -3 -6 8 3 9 1 18 -6 20 -7 2 6 8
27 12 32 6 42 5 53 -11 13 -18 14 -17 11 11 -2 17 -8 30 -15 30 -6 0 -15 3
-19 8 -4 4 5 6 19 5 24 -2 27 -6 27 -40 0 -31 -4 -38 -20 -38 -13 0 -18 5 -14
15 5 11 0 14 -20 13 -14 -1 -26 -3 -26 -5 0 -1 19 -14 43 -28 23 -15 34 -25
25 -22 -12 4 -15 2 -11 -9 4 -10 -2 -17 -16 -21 -11 -3 -21 -10 -21 -15 0 -5
9 -6 20 -3 24 8 28 -16 5 -35 -9 -7 -13 -15 -11 -18 3 -2 12 3 22 12 11 11 14
25 9 43 -5 22 -3 25 14 20 15 -4 18 -1 14 12 -4 9 -3 13 2 9 4 -4 15 -2 23 5
13 10 14 9 8 -2 -6 -9 -5 -12 5 -9 9 3 13 16 11 35 -2 20 3 35 15 43 15 12 16
12 6 0 -16 -18 -17 -38 -2 -23 6 6 18 9 27 6 8 -4 13 -2 9 3 -3 5 6 14 19 21
13 6 22 8 19 4 -2 -4 6 -6 18 -5 12 1 25 3 30 3 4 1 7 5 7 11 0 5 -7 7 -15 4
-8 -4 -15 -1 -15 6 0 7 -7 10 -15 6 -8 -3 -15 -3 -15 0 0 2 10 9 23 14 29 11
97 13 97 1z m65 -11 c11 -5 14 -9 8 -9 -7 -1 -13 -8 -13 -17 0 -8 -4 -13 -10
-9 -5 3 -7 12 -4 20 4 8 -3 15 -18 18 -18 3 -19 4 -3 5 11 0 29 -3 40 -8z
m-395 -4 c0 -11 -19 -15 -25 -6 -3 5 1 10 9 10 9 0 16 -2 16 -4z m200 -1 c0
-2 -10 -9 -22 -15 -22 -11 -22 -10 -4 4 21 17 26 19 26 11z m-87 -181 c-18
-29 -19 -29 -20 -6 -2 29 6 42 21 36 13 -5 13 -9 -1 -30z m434 -6 c-3 -7 -5
-2 -5 12 0 14 2 19 5 13 2 -7 2 -19 0 -25z m-470 -390 c-1 -62 -3 -12 -3 112
0 124 2 174 3 113 2 -62 2 -164 0 -225z m480 280 c-3 -8 -6 -5 -6 6 -1 11 2
17 5 13 3 -3 4 -12 1 -19z m3 -198 c0 -5 -5 -10 -11 -10 -5 0 -7 5 -4 10 3 6
8 10 11 10 2 0 4 -4 4 -10z m-7 -60 c3 -11 1 -20 -4 -20 -5 0 -9 9 -9 20 0 11
2 20 4 20 2 0 6 -9 9 -20z m4 -82 c-3 -8 -6 -5 -6 6 -1 11 2 17 5 13 3 -3 4
-12 1 -19z"/>
<path d="M12041 5254 c0 -11 3 -14 6 -6 3 7 2 16 -1 19 -3 4 -6 -2 -5 -13z"/>
<path d="M11891 5250 c-9 -5 -4 -7 13 -7 15 0 28 3 30 6 6 10 -28 11 -43 1z"/>
<path d="M11861 5224 c0 -11 3 -14 6 -6 3 7 2 16 -1 19 -3 4 -6 -2 -5 -13z"/>
<path d="M11887 5219 c7 -7 15 -10 18 -7 3 3 -2 9 -12 12 -14 6 -15 5 -6 -5z"/>
<path d="M11638 5213 c7 -3 16 -2 19 1 4 3 -2 6 -13 5 -11 0 -14 -3 -6 -6z"/>
<path d="M12018 5213 c7 -3 16 -2 19 1 4 3 -2 6 -13 5 -11 0 -14 -3 -6 -6z"/>
<path d="M12076 5194 c-5 -14 -4 -15 9 -4 17 14 19 20 6 20 -5 0 -12 -7 -15
-16z"/>
<path d="M12120 5149 c0 -5 5 -7 10 -4 6 3 10 8 10 11 0 2 -4 4 -10 4 -5 0
-10 -5 -10 -11z"/>
<path d="M12035 5092 c4 -13 7 -58 7 -100 0 -46 5 -80 12 -84 8 -6 8 -8 -1 -8
-10 0 -13 -33 -13 -130 0 -122 1 -130 19 -130 11 0 23 5 27 12 5 8 1 9 -12 5
-18 -7 -18 -7 0 8 11 8 15 15 8 15 -6 0 -9 7 -5 17 5 12 3 14 -8 8 -12 -8 -12
-6 0 9 26 31 16 116 -11 99 -4 -2 -5 3 -2 11 3 8 14 13 25 11 10 -2 19 0 19 6
0 5 -3 9 -7 9 -5 0 -13 12 -20 26 -10 21 -9 28 7 44 12 12 26 17 37 13 16 -5
15 -3 -2 14 -11 11 -23 19 -27 16 -5 -2 -16 1 -25 6 -11 6 -13 11 -5 11 7 0
10 5 7 10 -3 6 -1 10 4 10 6 0 11 9 11 20 0 11 -4 20 -10 20 -15 0 -12 19 4
36 19 18 43 18 43 -1 0 -15 -9 -19 -37 -16 -12 1 -12 0 -2 -7 7 -5 24 -7 37
-4 19 3 22 8 16 26 -7 17 -17 21 -47 21 -22 0 -43 4 -47 10 -5 5 -5 0 -2 -13z
m65 -148 c0 -2 -9 -4 -20 -4 -11 0 -20 4 -20 9 0 5 9 7 20 4 11 -3 20 -7 20
-9z m-32 -85 c-3 -8 -7 -3 -11 10 -4 17 -3 21 5 13 5 -5 8 -16 6 -23z m-3 -99
c-3 -4 0 -10 7 -12 8 -3 7 -6 -3 -10 -11 -4 -15 1 -15 17 0 13 4 21 8 19 5 -3
6 -9 3 -14z"/>
<path d="M11610 5083 c1 -18 18 -35 24 -24 4 6 2 11 -4 11 -6 0 -8 5 -5 10 3
6 1 10 -4 10 -6 0 -11 -3 -11 -7z"/>
<path d="M11655 5069 c-4 -6 -5 -12 -2 -15 2 -3 7 2 10 11 7 17 1 20 -8 4z"/>
<path d="M11605 5040 c10 -11 20 -18 23 -16 5 6 -23 36 -34 36 -4 0 1 -9 11
-20z"/>
<path d="M12096 5012 c-4 -7 -4 -12 1 -13 4 0 16 -2 26 -4 9 -2 17 1 17 7 0 6
-6 8 -14 5 -8 -3 -16 -1 -19 6 -2 8 -5 8 -11 -1z"/>
<path d="M11641 4914 c0 -11 3 -14 6 -6 3 7 2 16 -1 19 -3 4 -6 -2 -5 -13z"/>
<path d="M12101 4863 c6 -7 15 -13 20 -13 5 0 6 6 3 13 -3 8 -11 14 -19 14
-11 0 -12 -4 -4 -14z"/>
<path d="M11619 4826 c8 -10 9 -16 1 -21 -5 -3 -10 -13 -10 -22 0 -9 3 -13 7
-10 3 4 15 0 25 -10 10 -9 18 -13 18 -10 0 3 -10 15 -22 27 -12 11 -19 21 -15
21 4 1 12 3 17 4 6 1 15 3 20 4 6 0 10 5 10 10 0 5 -9 7 -20 4 -11 -3 -20 0
-20 6 0 6 -5 11 -11 11 -8 0 -8 -4 0 -14z"/>
<path d="M12105 4800 c-3 -6 1 -7 9 -4 18 7 21 14 7 14 -6 0 -13 -4 -16 -10z"/>
<path d="M12108 4770 c15 -18 16 -34 0 -24 -7 4 -8 3 -4 -5 6 -9 11 -9 22 0 8
6 13 12 12 13 -2 1 -12 8 -23 16 -17 12 -18 12 -7 0z"/>
<path d="M11650 4731 c0 -5 5 -13 10 -16 6 -3 10 -2 10 4 0 5 -4 13 -10 16 -5
3 -10 2 -10 -4z"/>
<path d="M7720 5090 c0 -142 5 -271 11 -300 24 -114 125 -190 251 -190 80 0
129 18 176 62 l32 32 0 -42 0 -42 100 0 100 0 0 365 0 365 -100 0 -100 0 0
-225 c0 -249 -4 -272 -59 -318 -26 -21 -43 -27 -83 -27 -43 0 -54 4 -83 33
-43 43 -47 72 -43 330 l3 207 -102 0 -103 0 0 -250z"/>
<path d="M11190 4975 l0 -365 95 0 95 0 0 365 0 365 -95 0 -95 0 0 -365z m43
338 c-7 -2 -13 -20 -13 -39 0 -20 4 -33 9 -30 5 3 7 15 4 26 -4 14 -1 19 8 15
29 -10 99 -11 103 -1 3 6 4 -16 2 -48 -2 -47 -7 -61 -22 -67 -18 -7 -18 -8 4
-15 12 -3 22 -11 22 -16 0 -6 -7 -8 -15 -4 -8 3 -15 1 -15 -4 0 -6 5 -10 10
-10 7 0 6 -8 -1 -22 -11 -20 -10 -21 2 -11 22 18 24 -33 3 -66 -9 -14 -13 -23
-9 -19 5 4 14 3 22 -3 11 -10 13 16 12 151 0 89 2 165 5 168 3 3 6 -154 6
-349 -1 -245 -4 -349 -11 -336 -5 9 -15 17 -20 17 -6 0 -7 -4 -4 -10 8 -13
-31 -13 -57 1 -15 8 -19 8 -14 0 5 -7 -4 -11 -23 -11 l-31 0 0 345 c0 322 1
345 18 344 10 0 12 -3 5 -6z m47 -8 c0 -8 -4 -15 -8 -15 -5 0 -9 7 -9 15 0 8
4 15 9 15 4 0 8 -7 8 -15z"/>
<path d="M11270 5220 c0 -5 5 -10 11 -10 5 0 7 5 4 10 -3 6 -8 10 -11 10 -2 0
-4 -4 -4 -10z"/>
<path d="M11310 5199 c0 -5 -6 -7 -12 -3 -7 4 -9 3 -5 -1 13 -15 36 -14 30 1
-6 17 -13 18 -13 3z"/>
<path d="M11221 5184 c0 -11 3 -14 6 -6 3 7 2 16 -1 19 -3 4 -6 -2 -5 -13z"/>
<path d="M11232 5145 c-7 -8 -8 -15 -3 -15 5 0 12 4 15 9 3 5 16 7 29 5 20 -4
21 -4 2 5 -27 13 -28 13 -43 -4z"/>
<path d="M11237 5123 c-14 -4 -17 -13 -15 -44 1 -21 6 -39 11 -39 5 0 7 14 3
30 -3 17 -2 29 3 26 5 -3 11 3 14 14 3 11 4 19 4 19 -1 -1 -10 -3 -20 -6z"/>
<path d="M11287 5084 c-3 -3 -3 -12 0 -20 3 -8 1 -14 -5 -14 -6 0 -8 -9 -5
-20 9 -33 21 -23 19 15 -1 19 3 37 9 39 6 3 6 5 -1 5 -6 1 -13 -2 -17 -5z"/>
<path d="M11251 5054 c0 -11 3 -14 6 -6 3 7 2 16 -1 19 -3 4 -6 -2 -5 -13z"/>
<path d="M11310 5035 c0 -8 2 -15 4 -15 2 0 6 7 10 15 3 8 1 15 -4 15 -6 0
-10 -7 -10 -15z"/>
<path d="M11220 4998 c0 -11 12 -10 30 2 12 7 10 9 -8 7 -12 0 -22 -5 -22 -9z"/>
<path d="M11230 4980 c-8 -5 -11 -13 -6 -17 5 -4 11 -2 13 5 3 6 9 10 13 7 5
-3 11 -1 15 5 8 13 -15 13 -35 0z"/>
<path d="M11346 4955 c-4 -14 -11 -25 -17 -25 -6 0 -7 -5 -4 -10 4 -6 10 -8
14 -6 4 3 8 -9 9 -26 3 -33 -14 -62 -31 -51 -6 4 -7 1 -3 -6 5 -7 11 -10 14
-7 3 3 11 1 19 -5 11 -9 13 4 13 75 0 89 -3 104 -14 61z"/>
<path d="M11222 4863 c0 -37 4 -53 15 -58 13 -4 13 -3 4 9 -9 11 -8 17 4 29
20 20 19 28 -2 20 -9 -4 -14 -2 -11 3 3 5 2 18 -2 29 -6 14 -8 3 -8 -32z"/>
<path d="M11275 4900 c-3 -5 -1 -10 4 -10 6 0 11 5 11 10 0 6 -2 10 -4 10 -3
0 -8 -4 -11 -10z"/>
<path d="M11295 4870 c6 -10 4 -12 -11 -6 -15 6 -17 5 -6 -5 9 -9 15 -10 23
-2 8 8 7 13 -2 18 -8 6 -10 4 -4 -5z"/>
<path d="M11340 4769 c5 -15 6 -30 2 -33 -3 -3 -1 -6 5 -6 6 0 11 15 10 33 0
19 -6 34 -13 34 -8 0 -9 -9 -4 -28z"/>
<path d="M11223 4752 c1 -17 5 -28 10 -25 5 3 6 7 3 11 -3 3 2 11 12 19 9 8
11 11 3 7 -7 -3 -17 -1 -21 6 -5 8 -7 0 -7 -18z"/>
<path d="M11270 4775 c0 -7 30 -13 34 -7 3 4 -4 9 -15 9 -10 1 -19 0 -19 -2z"/>
<path d="M11261 4713 c0 -12 -5 -25 -11 -28 -5 -3 -10 -11 -10 -18 0 -6 7 -1
16 11 8 12 13 30 11 40 -4 13 -5 12 -6 -5z"/>
<path d="M11280 4719 c0 -5 5 -7 10 -4 6 3 10 8 10 11 0 2 -4 4 -10 4 -5 0
-10 -5 -10 -11z"/>
<path d="M11327 4703 c10 -3 9 -9 -3 -20 -12 -13 -18 -13 -24 -4 -10 17 -22
-2 -14 -23 5 -13 9 -12 27 4 15 15 23 17 28 8 6 -9 10 -7 15 6 7 18 -10 36
-31 35 -5 0 -4 -3 2 -6z"/>
<path d="M11220 4650 c0 -6 7 -10 15 -10 8 0 15 2 15 4 0 2 -7 6 -15 10 -8 3
-15 1 -15 -4z"/>
<path d="M12440 5250 c6 -11 12 -20 14 -20 2 0 2 9 -1 20 -3 11 -9 20 -15 20
-5 0 -4 -9 2 -20z"/>
<path d="M12410 5200 c0 -5 7 -7 15 -4 8 4 15 8 15 10 0 2 -7 4 -15 4 -8 0
-15 -4 -15 -10z"/>
<path d="M12453 5165 c0 -8 4 -12 9 -9 5 3 6 10 3 15 -9 13 -12 11 -12 -6z"/>
<path d="M12680 5106 c0 -2 7 -7 16 -10 8 -3 12 -2 9 4 -6 10 -25 14 -25 6z"/>
<path d="M12451 5024 c6 -8 8 -14 4 -14 -4 0 -2 -7 5 -15 7 -8 18 -15 24 -15
6 0 3 5 -7 11 -14 8 -16 14 -6 25 6 8 10 14 8 15 -38 8 -40 7 -28 -7z"/>
<path d="M12586 5022 c-3 -5 1 -9 9 -9 8 0 12 4 9 9 -3 4 -7 8 -9 8 -2 0 -6
-4 -9 -8z"/>
<path d="M12666 4937 c3 -10 9 -15 12 -12 3 3 0 11 -7 18 -10 9 -11 8 -5 -6z"/>
<path d="M12430 4891 c0 -7 -4 -10 -8 -7 -5 3 -9 -1 -9 -9 0 -8 4 -15 9 -15
11 0 22 29 14 37 -3 4 -6 1 -6 -6z"/>
<path d="M12480 4880 c6 -11 15 -18 21 -15 13 9 11 13 -12 25 -19 11 -20 10
-9 -10z"/>
<path d="M12735 4860 c3 -5 8 -10 11 -10 2 0 4 5 4 10 0 6 -5 10 -11 10 -5 0
-7 -4 -4 -10z"/>
<path d="M12695 4847 c-11 -9 -14 -16 -8 -20 6 -4 14 0 17 9 3 8 11 12 17 8 8
-4 9 -3 5 4 -9 15 -8 15 -31 -1z"/>
<path d="M12806 4833 c-6 -14 -5 -15 5 -6 7 7 10 15 7 18 -3 3 -9 -2 -12 -12z"/>
<path d="M12757 4809 c7 -7 15 -10 18 -7 3 3 -2 9 -12 12 -14 6 -15 5 -6 -5z"/>
<path d="M12770 4772 c0 -6 9 -12 20 -15 11 -3 20 -3 20 -1 0 2 -9 8 -20 14
-11 6 -20 7 -20 2z"/>
<path d="M12871 4721 c-8 -6 -9 -11 -3 -15 6 -3 14 -1 17 5 9 14 2 20 -14 10z"/>
<path d="M12836 4688 c3 -5 10 -6 15 -3 13 9 11 12 -6 12 -8 0 -12 -4 -9 -9z"/>
<path d="M12886 4657 c3 -10 9 -15 12 -12 3 3 0 11 -7 18 -10 9 -11 8 -5 -6z"/>
<path d="M12965 4660 c3 -5 8 -10 11 -10 2 0 4 5 4 10 0 6 -5 10 -11 10 -5 0
-7 -4 -4 -10z"/>
</g>
</svg>
